<svg width="352" height="315" viewBox="0 0 352 315" fill="none" xmlns="http://www.w3.org/2000/svg">
<g id="Logo-intro">
<g id="M-logo">
<g id="Rectangle 2" filter="url(#filter0_ddi_103_409)">
<rect width="8.11495" height="181.015" rx="2" transform="matrix(0.801617 -0.597839 0.504164 0.863608 87.1446 14.5361)" fill="#923FD3"/>
</g>
<line id="Line 1" y1="-0.5" x2="172.158" y2="-0.5" transform="matrix(0.500444 0.865769 -0.804441 0.594033 94.008 17.9987)" stroke="white"/>
<g id="Rectangle 2_2" filter="url(#filter1_ddi_103_409)">
<rect width="9.24964" height="207.199" rx="2" transform="matrix(0.798478 -0.602024 0.500071 0.865985 56.9106 29.4303)" fill="#923FD3"/>
</g>
<line id="Line 1_2" y1="-0.5" x2="197.07" y2="-0.5" transform="matrix(0.496361 0.868116 -0.801331 0.598221 62.4324 31.1089)" stroke="white"/>
<g id="Rectangle 2_3" filter="url(#filter2_ddi_103_409)">
<rect width="9.45196" height="209.228" rx="2" transform="matrix(0.940817 0.338914 -0.426042 0.904703 284.782 13.2484)" fill="#923FD3"/>
</g>
<line id="Line 1_3" y1="-0.5" x2="198.976" y2="-0.5" transform="matrix(-0.429968 0.902844 -0.93921 -0.343343 286.579 18.9175)" stroke="white"/>
<g id="Rectangle 2_4" filter="url(#filter3_ddi_103_409)">
<rect width="8.11495" height="181.015" rx="2" transform="matrix(0.943967 0.33004 -0.433826 0.900997 255.315 7)" fill="#923FD3"/>
</g>
<line id="Line 1_4" x1="257.274" y1="12.0659" x2="182.361" y2="168.078" stroke="white"/>
<line id="Line 2" x1="176.327" y1="159.584" x2="182.327" y2="168.584" stroke="white"/>
<g id="Rectangle 2_5" filter="url(#filter4_ddi_103_409)">
<rect width="9.06594" height="188.228" rx="2" transform="matrix(0.998484 0.0550494 0.000525274 1 285.938 17.0061)" fill="#923FD3"/>
</g>
<line id="Line 1_5" y1="-0.5" x2="178.886" y2="-0.5" transform="matrix(-0.00412179 0.999992 -0.99823 -0.0594712 289.828 21.4899)" stroke="white"/>
<g id="Rectangle 2_6" filter="url(#filter5_ddi_103_409)">
<rect width="9.06594" height="188.228" rx="2" transform="matrix(0.998484 0.0550494 0.000525309 1 58.3162 28.0061)" fill="#923FD3"/>
</g>
<line id="Line 1_6" y1="-0.5" x2="178.886" y2="-0.5" transform="matrix(-0.00412175 0.999992 -0.99823 -0.0594711 62.2057 32.4899)" stroke="white"/>
</g>
<g id="Studio-on">
<g id="STUDIO" filter="url(#filter6_dd_103_409)">
<path d="M51.3779 268.733C50.2339 268.733 49.1766 268.456 48.2059 267.901C47.2699 267.346 46.5246 266.601 45.9699 265.665C45.4153 264.694 45.1379 263.637 45.1379 262.493V261.037H49.3499V262.493C49.3499 263.048 49.5406 263.533 49.9219 263.949C50.3379 264.33 50.8233 264.521 51.3779 264.521H76.3379C76.8926 264.521 77.3606 264.33 77.7419 263.949C78.1579 263.533 78.3659 263.048 78.3659 262.493V254.121C78.3659 253.566 78.1579 253.098 77.7419 252.717C77.3606 252.336 76.8926 252.145 76.3379 252.145H51.3779C50.2339 252.145 49.1766 251.868 48.2059 251.313C47.2699 250.724 46.5246 249.961 45.9699 249.025C45.4153 248.089 45.1379 247.049 45.1379 245.905V237.533C45.1379 236.389 45.4153 235.349 45.9699 234.413C46.5246 233.442 47.2699 232.68 48.2059 232.125C49.1766 231.57 50.2339 231.293 51.3779 231.293H76.3379C77.4819 231.293 78.5219 231.57 79.4579 232.125C80.4286 232.68 81.1913 233.442 81.7459 234.413C82.3006 235.349 82.5779 236.389 82.5779 237.533V238.989H78.3659V237.533C78.3659 236.978 78.1579 236.51 77.7419 236.129C77.3606 235.713 76.8926 235.505 76.3379 235.505H51.3779C50.8233 235.505 50.3379 235.713 49.9219 236.129C49.5406 236.51 49.3499 236.978 49.3499 237.533V245.905C49.3499 246.46 49.5406 246.928 49.9219 247.309C50.3379 247.69 50.8233 247.881 51.3779 247.881H76.3379C77.4819 247.881 78.5219 248.176 79.4579 248.765C80.4286 249.32 81.1913 250.065 81.7459 251.001C82.3006 251.937 82.5779 252.977 82.5779 254.121V262.493C82.5779 263.637 82.3006 264.694 81.7459 265.665C81.1913 266.601 80.4286 267.346 79.4579 267.901C78.5219 268.456 77.4819 268.733 76.3379 268.733H51.3779ZM111.764 268.733V235.505H95.1237V231.293H132.564V235.505H115.976V268.733H111.764ZM151.429 268.733C150.285 268.733 149.227 268.456 148.257 267.901C147.321 267.346 146.575 266.601 146.021 265.665C145.466 264.694 145.189 263.637 145.189 262.493V231.293H149.401V262.493C149.401 263.048 149.591 263.533 149.973 263.949C150.389 264.33 150.874 264.521 151.429 264.521H176.389C176.943 264.521 177.411 264.33 177.793 263.949C178.209 263.533 178.417 263.048 178.417 262.493V231.293H182.629V262.493C182.629 263.637 182.351 264.694 181.797 265.665C181.242 266.601 180.479 267.346 179.509 267.901C178.573 268.456 177.533 268.733 176.389 268.733H151.429ZM197.299 268.733V231.293H228.499C229.643 231.293 230.683 231.57 231.619 232.125C232.59 232.68 233.353 233.442 233.907 234.413C234.462 235.349 234.739 236.389 234.739 237.533V262.493C234.739 263.637 234.462 264.694 233.907 265.665C233.353 266.601 232.59 267.346 231.619 267.901C230.683 268.456 229.643 268.733 228.499 268.733H197.299ZM203.539 264.521H228.499C229.054 264.521 229.522 264.33 229.903 263.949C230.319 263.533 230.527 263.048 230.527 262.493V237.533C230.527 236.978 230.319 236.51 229.903 236.129C229.522 235.713 229.054 235.505 228.499 235.505H203.539C202.985 235.505 202.499 235.713 202.083 236.129C201.702 236.51 201.511 236.978 201.511 237.533V262.493C201.511 263.048 201.702 263.533 202.083 263.949C202.499 264.33 202.985 264.521 203.539 264.521ZM249.922 268.733V231.293H254.186V268.733H249.922ZM275.5 268.733C274.356 268.733 273.298 268.456 272.328 267.901C271.392 267.346 270.646 266.601 270.092 265.665C269.537 264.694 269.26 263.637 269.26 262.493V237.533C269.26 236.389 269.537 235.349 270.092 234.413C270.646 233.442 271.392 232.68 272.328 232.125C273.298 231.57 274.356 231.293 275.5 231.293H300.46C301.604 231.293 302.644 231.57 303.58 232.125C304.55 232.68 305.313 233.442 305.868 234.413C306.422 235.349 306.7 236.389 306.7 237.533V262.493C306.7 263.637 306.422 264.694 305.868 265.665C305.313 266.601 304.55 267.346 303.58 267.901C302.644 268.456 301.604 268.733 300.46 268.733H275.5ZM275.5 264.521H300.46C301.014 264.521 301.482 264.33 301.864 263.949C302.28 263.533 302.488 263.048 302.488 262.493V237.533C302.488 236.978 302.28 236.51 301.864 236.129C301.482 235.713 301.014 235.505 300.46 235.505H275.5C274.945 235.505 274.46 235.713 274.044 236.129C273.662 236.51 273.472 236.978 273.472 237.533V262.493C273.472 263.048 273.662 263.533 274.044 263.949C274.46 264.33 274.945 264.521 275.5 264.521Z" fill="#EAE3EF" fill-opacity="0.1" shape-rendering="crispEdges"/>
</g>
</g>
<g id="Text-logo">
<path id="First reggeaton dance classes in israel!" d="M50.7996 292.013C50.7996 292.113 50.7496 292.163 50.6496 292.163H47.1996C47.1596 292.163 47.1396 292.183 47.1396 292.223V295.943C47.1396 295.983 47.1596 296.003 47.1996 296.003H49.3746C49.4746 296.003 49.5246 296.053 49.5246 296.153V296.798C49.5246 296.898 49.4746 296.948 49.3746 296.948H47.1996C47.1596 296.948 47.1396 296.968 47.1396 297.008V301.583C47.1396 301.683 47.0896 301.733 46.9896 301.733H46.2246C46.1246 301.733 46.0746 301.683 46.0746 301.583V291.383C46.0746 291.283 46.1246 291.233 46.2246 291.233H50.6496C50.7496 291.233 50.7996 291.283 50.7996 291.383V292.013ZM54.1191 292.763C53.8691 292.763 53.6641 292.683 53.5041 292.523C53.3541 292.363 53.2791 292.163 53.2791 291.923C53.2791 291.673 53.3541 291.473 53.5041 291.323C53.6641 291.163 53.8691 291.083 54.1191 291.083C54.3591 291.083 54.5541 291.163 54.7041 291.323C54.8641 291.473 54.9441 291.673 54.9441 291.923C54.9441 292.163 54.8641 292.363 54.7041 292.523C54.5541 292.683 54.3591 292.763 54.1191 292.763ZM53.7441 301.733C53.6441 301.733 53.5941 301.683 53.5941 301.583V294.293C53.5941 294.193 53.6441 294.143 53.7441 294.143H54.5091C54.6091 294.143 54.6591 294.193 54.6591 294.293V301.583C54.6591 301.683 54.6091 301.733 54.5091 301.733H53.7441ZM60.6592 294.068C60.9092 294.068 61.1242 294.123 61.3042 294.233C61.3742 294.273 61.3992 294.338 61.3792 294.428L61.1992 295.208C61.1892 295.298 61.1292 295.328 61.0192 295.298C60.8992 295.238 60.7492 295.208 60.5692 295.208C60.4892 295.208 60.4292 295.213 60.3892 295.223C60.0292 295.243 59.7342 295.433 59.5042 295.793C59.2742 296.143 59.1592 296.573 59.1592 297.083V301.583C59.1592 301.683 59.1092 301.733 59.0092 301.733H58.2442C58.1442 301.733 58.0942 301.683 58.0942 301.583V294.293C58.0942 294.193 58.1442 294.143 58.2442 294.143H59.0092C59.1092 294.143 59.1592 294.193 59.1592 294.293V295.193C59.1592 295.223 59.1642 295.238 59.1742 295.238C59.1942 295.238 59.2142 295.228 59.2342 295.208C59.5242 294.448 59.9992 294.068 60.6592 294.068ZM65.9541 301.808C65.2641 301.808 64.7091 301.633 64.2891 301.283C63.8791 300.923 63.6741 300.448 63.6741 299.858V299.753C63.6741 299.653 63.7241 299.603 63.8241 299.603H64.5441C64.6441 299.603 64.6941 299.653 64.6941 299.753V299.843C64.6941 300.163 64.8091 300.433 65.0391 300.653C65.2791 300.873 65.5891 300.983 65.9691 300.983C66.3291 300.983 66.6191 300.873 66.8391 300.653C67.0591 300.433 67.1691 300.153 67.1691 299.813C67.1691 299.553 67.0991 299.338 66.9591 299.168C66.8191 298.988 66.6541 298.848 66.4641 298.748C66.2841 298.648 66.0091 298.518 65.6391 298.358C65.2491 298.198 64.9241 298.043 64.6641 297.893C64.4141 297.733 64.1941 297.513 64.0041 297.233C63.8241 296.943 63.7341 296.578 63.7341 296.138C63.7341 295.498 63.9291 294.993 64.3191 294.623C64.7191 294.253 65.2541 294.068 65.9241 294.068C66.6041 294.068 67.1441 294.258 67.5441 294.638C67.9441 295.018 68.1441 295.523 68.1441 296.153V296.198C68.1441 296.298 68.0941 296.348 67.9941 296.348H67.3041C67.2041 296.348 67.1541 296.298 67.1541 296.198V296.108C67.1541 295.768 67.0391 295.488 66.8091 295.268C66.5891 295.048 66.2991 294.938 65.9391 294.938C65.5791 294.938 65.2891 295.053 65.0691 295.283C64.8591 295.503 64.7541 295.778 64.7541 296.108C64.7541 296.348 64.8191 296.553 64.9491 296.723C65.0791 296.883 65.2391 297.018 65.4291 297.128C65.6191 297.228 65.8841 297.353 66.2241 297.503C66.6341 297.683 66.9691 297.853 67.2291 298.013C67.4991 298.173 67.7341 298.398 67.9341 298.688C68.1341 298.978 68.2341 299.338 68.2341 299.768C68.2341 300.388 68.0291 300.883 67.6191 301.253C67.2091 301.623 66.6541 301.808 65.9541 301.808ZM73.7544 294.788C73.7544 294.888 73.7044 294.938 73.6044 294.938H72.4644C72.4244 294.938 72.4044 294.958 72.4044 294.998V299.588C72.4044 300.048 72.4844 300.368 72.6444 300.548C72.8044 300.718 73.0494 300.798 73.3794 300.788H73.5294C73.6294 300.788 73.6794 300.838 73.6794 300.938V301.583C73.6794 301.683 73.6294 301.733 73.5294 301.733H73.1544C72.5644 301.733 72.1144 301.608 71.8044 301.358C71.5044 301.098 71.3544 300.613 71.3544 299.903V294.998C71.3544 294.958 71.3344 294.938 71.2944 294.938H70.7094C70.6094 294.938 70.5594 294.888 70.5594 294.788V294.293C70.5594 294.193 70.6094 294.143 70.7094 294.143H71.2944C71.3344 294.143 71.3544 294.123 71.3544 294.083V292.403C71.3544 292.303 71.4044 292.253 71.5044 292.253H72.2544C72.3544 292.253 72.4044 292.303 72.4044 292.403V294.083C72.4044 294.123 72.4244 294.143 72.4644 294.143H73.6044C73.7044 294.143 73.7544 294.193 73.7544 294.293V294.788ZM85.4514 301.733C85.3614 301.733 85.3014 301.693 85.2714 301.613L83.7414 296.978C83.7314 296.948 83.7114 296.933 83.6814 296.933H82.3764C82.3364 296.933 82.3164 296.953 82.3164 296.993V301.583C82.3164 301.683 82.2664 301.733 82.1664 301.733H81.4014C81.3014 301.733 81.2514 301.683 81.2514 301.583V291.383C81.2514 291.283 81.3014 291.233 81.4014 291.233H83.8764C84.6064 291.233 85.1964 291.503 85.6464 292.043C86.0964 292.573 86.3214 293.268 86.3214 294.128C86.3214 294.778 86.1814 295.338 85.9014 295.808C85.6214 296.278 85.2414 296.608 84.7614 296.798C84.7214 296.808 84.7064 296.833 84.7164 296.873L86.3514 301.568L86.3664 301.628C86.3664 301.698 86.3214 301.733 86.2314 301.733H85.4514ZM82.3764 292.163C82.3364 292.163 82.3164 292.183 82.3164 292.223V296.018C82.3164 296.058 82.3364 296.078 82.3764 296.078H83.7264C84.1864 296.078 84.5564 295.903 84.8364 295.553C85.1164 295.193 85.2564 294.718 85.2564 294.128C85.2564 293.538 85.1164 293.063 84.8364 292.703C84.5564 292.343 84.1864 292.163 83.7264 292.163H82.3764ZM93.7668 298.193C93.7668 298.293 93.7168 298.343 93.6168 298.343H90.1968C90.1568 298.343 90.1368 298.363 90.1368 298.403V299.498C90.1368 299.918 90.2518 300.263 90.4818 300.533C90.7218 300.793 91.0318 300.923 91.4118 300.923C91.7318 300.923 92.0018 300.828 92.2218 300.638C92.4518 300.438 92.6018 300.183 92.6718 299.873C92.7018 299.783 92.7568 299.738 92.8368 299.738L93.5868 299.768C93.6268 299.768 93.6618 299.783 93.6918 299.813C93.7218 299.843 93.7318 299.883 93.7218 299.933C93.6418 300.523 93.3968 300.993 92.9868 301.343C92.5868 301.683 92.0618 301.853 91.4118 301.853C90.7018 301.853 90.1318 301.643 89.7018 301.223C89.2818 300.803 89.0718 300.248 89.0718 299.558V296.318C89.0718 295.638 89.2818 295.088 89.7018 294.668C90.1318 294.238 90.7018 294.023 91.4118 294.023C92.1318 294.023 92.7018 294.238 93.1218 294.668C93.5518 295.088 93.7668 295.638 93.7668 296.318V298.193ZM91.4118 294.953C91.0318 294.953 90.7218 295.088 90.4818 295.358C90.2518 295.618 90.1368 295.963 90.1368 296.393V297.398C90.1368 297.438 90.1568 297.458 90.1968 297.458H92.6568C92.6968 297.458 92.7168 297.438 92.7168 297.398V296.393C92.7168 295.963 92.5968 295.618 92.3568 295.358C92.1168 295.088 91.8018 294.953 91.4118 294.953ZM100.295 294.293C100.295 294.193 100.345 294.143 100.445 294.143H101.21C101.31 294.143 101.36 294.193 101.36 294.293V301.583C101.36 302.653 101.11 303.463 100.61 304.013C100.12 304.573 99.2952 304.828 98.1352 304.778C98.0352 304.768 97.9852 304.713 97.9852 304.613V303.968C97.9852 303.868 98.0352 303.818 98.1352 303.818C98.9352 303.838 99.4952 303.653 99.8152 303.263C100.135 302.883 100.295 302.293 100.295 301.493V301.043C100.295 301.023 100.285 301.008 100.265 300.998C100.255 300.988 100.24 300.993 100.22 301.013C100.05 301.263 99.8302 301.453 99.5602 301.583C99.3002 301.713 99.0202 301.778 98.7202 301.778C98.0902 301.778 97.5902 301.568 97.2202 301.148C96.8602 300.728 96.6802 300.173 96.6802 299.483V296.318C96.6802 295.618 96.8602 295.063 97.2202 294.653C97.5902 294.233 98.0902 294.023 98.7202 294.023C99.0202 294.023 99.3002 294.088 99.5602 294.218C99.8302 294.338 100.05 294.523 100.22 294.773C100.24 294.803 100.255 294.818 100.265 294.818C100.285 294.808 100.295 294.788 100.295 294.758V294.293ZM99.0352 300.848C99.4052 300.848 99.7052 300.718 99.9352 300.458C100.175 300.188 100.295 299.843 100.295 299.423V296.393C100.295 295.963 100.175 295.618 99.9352 295.358C99.7052 295.088 99.4052 294.953 99.0352 294.953C98.6552 294.953 98.3452 295.088 98.1052 295.358C97.8652 295.618 97.7452 295.963 97.7452 296.393V299.423C97.7452 299.843 97.8652 300.188 98.1052 300.458C98.3452 300.718 98.6552 300.848 99.0352 300.848ZM107.991 294.293C107.991 294.193 108.041 294.143 108.141 294.143H108.906C109.006 294.143 109.056 294.193 109.056 294.293V301.583C109.056 302.653 108.806 303.463 108.306 304.013C107.816 304.573 106.991 304.828 105.831 304.778C105.731 304.768 105.681 304.713 105.681 304.613V303.968C105.681 303.868 105.731 303.818 105.831 303.818C106.631 303.838 107.191 303.653 107.511 303.263C107.831 302.883 107.991 302.293 107.991 301.493V301.043C107.991 301.023 107.981 301.008 107.961 300.998C107.951 300.988 107.936 300.993 107.916 301.013C107.746 301.263 107.526 301.453 107.256 301.583C106.996 301.713 106.716 301.778 106.416 301.778C105.786 301.778 105.286 301.568 104.916 301.148C104.556 300.728 104.376 300.173 104.376 299.483V296.318C104.376 295.618 104.556 295.063 104.916 294.653C105.286 294.233 105.786 294.023 106.416 294.023C106.716 294.023 106.996 294.088 107.256 294.218C107.526 294.338 107.746 294.523 107.916 294.773C107.936 294.803 107.951 294.818 107.961 294.818C107.981 294.808 107.991 294.788 107.991 294.758V294.293ZM106.731 300.848C107.101 300.848 107.401 300.718 107.631 300.458C107.871 300.188 107.991 299.843 107.991 299.423V296.393C107.991 295.963 107.871 295.618 107.631 295.358C107.401 295.088 107.101 294.953 106.731 294.953C106.351 294.953 106.041 295.088 105.801 295.358C105.561 295.618 105.441 295.963 105.441 296.393V299.423C105.441 299.843 105.561 300.188 105.801 300.458C106.041 300.718 106.351 300.848 106.731 300.848ZM116.768 298.193C116.768 298.293 116.718 298.343 116.618 298.343H113.198C113.158 298.343 113.138 298.363 113.138 298.403V299.498C113.138 299.918 113.253 300.263 113.483 300.533C113.723 300.793 114.033 300.923 114.413 300.923C114.733 300.923 115.003 300.828 115.223 300.638C115.453 300.438 115.603 300.183 115.673 299.873C115.703 299.783 115.758 299.738 115.838 299.738L116.588 299.768C116.628 299.768 116.663 299.783 116.693 299.813C116.723 299.843 116.733 299.883 116.723 299.933C116.643 300.523 116.398 300.993 115.988 301.343C115.588 301.683 115.063 301.853 114.413 301.853C113.703 301.853 113.133 301.643 112.703 301.223C112.283 300.803 112.073 300.248 112.073 299.558V296.318C112.073 295.638 112.283 295.088 112.703 294.668C113.133 294.238 113.703 294.023 114.413 294.023C115.133 294.023 115.703 294.238 116.123 294.668C116.553 295.088 116.768 295.638 116.768 296.318V298.193ZM114.413 294.953C114.033 294.953 113.723 295.088 113.483 295.358C113.253 295.618 113.138 295.963 113.138 296.393V297.398C113.138 297.438 113.158 297.458 113.198 297.458H115.658C115.698 297.458 115.718 297.438 115.718 297.398V296.393C115.718 295.963 115.598 295.618 115.358 295.358C115.118 295.088 114.803 294.953 114.413 294.953ZM122.008 294.023C122.708 294.023 123.268 294.253 123.688 294.713C124.108 295.163 124.318 295.768 124.318 296.528V301.583C124.318 301.683 124.268 301.733 124.168 301.733H123.403C123.303 301.733 123.253 301.683 123.253 301.583V301.133C123.253 301.113 123.243 301.103 123.223 301.103C123.213 301.093 123.198 301.098 123.178 301.118C122.808 301.608 122.253 301.853 121.513 301.853C120.963 301.853 120.483 301.698 120.073 301.388C119.673 301.068 119.473 300.508 119.473 299.708C119.473 298.858 119.718 298.238 120.208 297.848C120.698 297.448 121.343 297.248 122.143 297.248H123.193C123.233 297.248 123.253 297.228 123.253 297.188V296.603C123.253 296.103 123.138 295.703 122.908 295.403C122.678 295.103 122.368 294.953 121.978 294.953C121.678 294.953 121.418 295.053 121.198 295.253C120.988 295.453 120.863 295.708 120.823 296.018C120.823 296.118 120.773 296.168 120.673 296.168L119.833 296.153C119.783 296.153 119.743 296.138 119.713 296.108C119.693 296.078 119.688 296.043 119.698 296.003C119.748 295.413 119.988 294.938 120.418 294.578C120.848 294.208 121.378 294.023 122.008 294.023ZM121.738 300.923C122.148 300.923 122.503 300.793 122.803 300.533C123.103 300.263 123.253 299.893 123.253 299.423V298.163C123.253 298.123 123.233 298.103 123.193 298.103H122.128C121.648 298.103 121.268 298.233 120.988 298.493C120.708 298.743 120.568 299.118 120.568 299.618C120.568 300.058 120.673 300.388 120.883 300.608C121.103 300.818 121.388 300.923 121.738 300.923ZM130.154 294.788C130.154 294.888 130.104 294.938 130.004 294.938H128.864C128.824 294.938 128.804 294.958 128.804 294.998V299.588C128.804 300.048 128.884 300.368 129.044 300.548C129.204 300.718 129.449 300.798 129.779 300.788H129.929C130.029 300.788 130.079 300.838 130.079 300.938V301.583C130.079 301.683 130.029 301.733 129.929 301.733H129.554C128.964 301.733 128.514 301.608 128.204 301.358C127.904 301.098 127.754 300.613 127.754 299.903V294.998C127.754 294.958 127.734 294.938 127.694 294.938H127.109C127.009 294.938 126.959 294.888 126.959 294.788V294.293C126.959 294.193 127.009 294.143 127.109 294.143H127.694C127.734 294.143 127.754 294.123 127.754 294.083V292.403C127.754 292.303 127.804 292.253 127.904 292.253H128.654C128.754 292.253 128.804 292.303 128.804 292.403V294.083C128.804 294.123 128.824 294.143 128.864 294.143H130.004C130.104 294.143 130.154 294.193 130.154 294.293V294.788ZM135.173 301.853C134.453 301.853 133.878 301.643 133.448 301.223C133.028 300.803 132.818 300.248 132.818 299.558V296.333C132.818 295.653 133.033 295.098 133.463 294.668C133.893 294.238 134.463 294.023 135.173 294.023C135.893 294.023 136.468 294.238 136.898 294.668C137.328 295.098 137.543 295.653 137.543 296.333V299.558C137.543 300.248 137.328 300.803 136.898 301.223C136.468 301.643 135.893 301.853 135.173 301.853ZM135.173 300.908C135.553 300.908 135.863 300.778 136.103 300.518C136.353 300.258 136.478 299.913 136.478 299.483V296.393C136.478 295.963 136.353 295.618 136.103 295.358C135.863 295.088 135.553 294.953 135.173 294.953C134.793 294.953 134.483 295.088 134.243 295.358C134.003 295.618 133.883 295.963 133.883 296.393V299.483C133.883 299.913 134.003 300.258 134.243 300.518C134.483 300.778 134.793 300.908 135.173 300.908ZM143.408 294.038C144.018 294.038 144.488 294.248 144.818 294.668C145.158 295.088 145.328 295.673 145.328 296.423V301.583C145.328 301.683 145.278 301.733 145.178 301.733H144.413C144.313 301.733 144.263 301.683 144.263 301.583V296.513C144.263 296.023 144.153 295.643 143.933 295.373C143.723 295.103 143.428 294.968 143.048 294.968C142.648 294.968 142.333 295.113 142.103 295.403C141.883 295.693 141.773 296.088 141.773 296.588V301.583C141.773 301.683 141.723 301.733 141.623 301.733H140.858C140.758 301.733 140.708 301.683 140.708 301.583V294.293C140.708 294.193 140.758 294.143 140.858 294.143H141.623C141.723 294.143 141.773 294.193 141.773 294.293V294.773C141.773 294.793 141.783 294.808 141.803 294.818C141.823 294.828 141.838 294.818 141.848 294.788C142.028 294.538 142.253 294.353 142.523 294.233C142.803 294.103 143.098 294.038 143.408 294.038ZM153.384 301.733C153.284 301.733 153.234 301.683 153.234 301.583V291.383C153.234 291.283 153.284 291.233 153.384 291.233H155.694C156.464 291.233 157.079 291.488 157.539 291.998C157.999 292.498 158.229 293.173 158.229 294.023V298.943C158.229 299.793 157.999 300.473 157.539 300.983C157.079 301.483 156.464 301.733 155.694 301.733H153.384ZM154.299 300.743C154.299 300.783 154.319 300.803 154.359 300.803L155.679 300.788C156.119 300.788 156.469 300.618 156.729 300.278C156.999 299.938 157.139 299.478 157.149 298.898V294.068C157.149 293.478 157.019 293.013 156.759 292.673C156.499 292.333 156.139 292.163 155.679 292.163H154.359C154.319 292.163 154.299 292.183 154.299 292.223V300.743ZM163.761 294.023C164.461 294.023 165.021 294.253 165.441 294.713C165.861 295.163 166.071 295.768 166.071 296.528V301.583C166.071 301.683 166.021 301.733 165.921 301.733H165.156C165.056 301.733 165.006 301.683 165.006 301.583V301.133C165.006 301.113 164.996 301.103 164.976 301.103C164.966 301.093 164.951 301.098 164.931 301.118C164.561 301.608 164.006 301.853 163.266 301.853C162.716 301.853 162.236 301.698 161.826 301.388C161.426 301.068 161.226 300.508 161.226 299.708C161.226 298.858 161.471 298.238 161.961 297.848C162.451 297.448 163.096 297.248 163.896 297.248H164.946C164.986 297.248 165.006 297.228 165.006 297.188V296.603C165.006 296.103 164.891 295.703 164.661 295.403C164.431 295.103 164.121 294.953 163.731 294.953C163.431 294.953 163.171 295.053 162.951 295.253C162.741 295.453 162.616 295.708 162.576 296.018C162.576 296.118 162.526 296.168 162.426 296.168L161.586 296.153C161.536 296.153 161.496 296.138 161.466 296.108C161.446 296.078 161.441 296.043 161.451 296.003C161.501 295.413 161.741 294.938 162.171 294.578C162.601 294.208 163.131 294.023 163.761 294.023ZM163.491 300.923C163.901 300.923 164.256 300.793 164.556 300.533C164.856 300.263 165.006 299.893 165.006 299.423V298.163C165.006 298.123 164.986 298.103 164.946 298.103H163.881C163.401 298.103 163.021 298.233 162.741 298.493C162.461 298.743 162.321 299.118 162.321 299.618C162.321 300.058 162.426 300.388 162.636 300.608C162.856 300.818 163.141 300.923 163.491 300.923ZM171.938 294.038C172.548 294.038 173.018 294.248 173.348 294.668C173.688 295.088 173.858 295.673 173.858 296.423V301.583C173.858 301.683 173.808 301.733 173.708 301.733H172.943C172.843 301.733 172.793 301.683 172.793 301.583V296.513C172.793 296.023 172.683 295.643 172.463 295.373C172.253 295.103 171.958 294.968 171.578 294.968C171.178 294.968 170.863 295.113 170.633 295.403C170.413 295.693 170.303 296.088 170.303 296.588V301.583C170.303 301.683 170.253 301.733 170.153 301.733H169.388C169.288 301.733 169.238 301.683 169.238 301.583V294.293C169.238 294.193 169.288 294.143 169.388 294.143H170.153C170.253 294.143 170.303 294.193 170.303 294.293V294.773C170.303 294.793 170.313 294.808 170.333 294.818C170.353 294.828 170.368 294.818 170.378 294.788C170.558 294.538 170.783 294.353 171.053 294.233C171.333 294.103 171.628 294.038 171.938 294.038ZM179.27 301.853C178.56 301.853 177.99 301.643 177.56 301.223C177.14 300.803 176.93 300.248 176.93 299.558V296.318C176.93 295.638 177.145 295.088 177.575 294.668C178.005 294.238 178.57 294.023 179.27 294.023C179.74 294.023 180.155 294.118 180.515 294.308C180.875 294.498 181.15 294.753 181.34 295.073C181.54 295.383 181.64 295.728 181.64 296.108V296.258C181.64 296.358 181.59 296.408 181.49 296.408L180.725 296.438C180.625 296.438 180.575 296.388 180.575 296.288V296.183C180.575 295.853 180.45 295.568 180.2 295.328C179.96 295.078 179.65 294.953 179.27 294.953C178.89 294.953 178.58 295.088 178.34 295.358C178.11 295.618 177.995 295.963 177.995 296.393V299.483C177.995 299.913 178.11 300.263 178.34 300.533C178.58 300.793 178.89 300.923 179.27 300.923C179.65 300.923 179.96 300.803 180.2 300.563C180.45 300.313 180.575 300.023 180.575 299.693V299.588C180.575 299.488 180.625 299.438 180.725 299.438L181.49 299.453C181.59 299.453 181.64 299.503 181.64 299.603V299.768C181.64 300.368 181.42 300.868 180.98 301.268C180.55 301.658 179.98 301.853 179.27 301.853ZM189.16 298.193C189.16 298.293 189.11 298.343 189.01 298.343H185.59C185.55 298.343 185.53 298.363 185.53 298.403V299.498C185.53 299.918 185.645 300.263 185.875 300.533C186.115 300.793 186.425 300.923 186.805 300.923C187.125 300.923 187.395 300.828 187.615 300.638C187.845 300.438 187.995 300.183 188.065 299.873C188.095 299.783 188.15 299.738 188.23 299.738L188.98 299.768C189.02 299.768 189.055 299.783 189.085 299.813C189.115 299.843 189.125 299.883 189.115 299.933C189.035 300.523 188.79 300.993 188.38 301.343C187.98 301.683 187.455 301.853 186.805 301.853C186.095 301.853 185.525 301.643 185.095 301.223C184.675 300.803 184.465 300.248 184.465 299.558V296.318C184.465 295.638 184.675 295.088 185.095 294.668C185.525 294.238 186.095 294.023 186.805 294.023C187.525 294.023 188.095 294.238 188.515 294.668C188.945 295.088 189.16 295.638 189.16 296.318V298.193ZM186.805 294.953C186.425 294.953 186.115 295.088 185.875 295.358C185.645 295.618 185.53 295.963 185.53 296.393V297.398C185.53 297.438 185.55 297.458 185.59 297.458H188.05C188.09 297.458 188.11 297.438 188.11 297.398V296.393C188.11 295.963 187.99 295.618 187.75 295.358C187.51 295.088 187.195 294.953 186.805 294.953ZM199.202 301.853C198.432 301.853 197.812 301.618 197.342 301.148C196.882 300.678 196.652 300.048 196.652 299.258V293.693C196.652 292.913 196.882 292.288 197.342 291.818C197.812 291.348 198.432 291.113 199.202 291.113C199.982 291.113 200.602 291.348 201.062 291.818C201.532 292.278 201.767 292.903 201.767 293.693V293.948C201.767 294.048 201.717 294.098 201.617 294.098L200.837 294.143C200.737 294.143 200.687 294.093 200.687 293.993V293.618C200.687 293.148 200.552 292.768 200.282 292.478C200.012 292.188 199.652 292.043 199.202 292.043C198.762 292.043 198.402 292.188 198.122 292.478C197.852 292.768 197.717 293.148 197.717 293.618V299.348C197.717 299.818 197.852 300.198 198.122 300.488C198.402 300.778 198.762 300.923 199.202 300.923C199.652 300.923 200.012 300.778 200.282 300.488C200.552 300.198 200.687 299.818 200.687 299.348V298.973C200.687 298.873 200.737 298.823 200.837 298.823L201.617 298.868C201.717 298.868 201.767 298.918 201.767 299.018V299.258C201.767 300.048 201.532 300.678 201.062 301.148C200.592 301.618 199.972 301.853 199.202 301.853ZM204.996 301.733C204.896 301.733 204.846 301.683 204.846 301.583V291.383C204.846 291.283 204.896 291.233 204.996 291.233H205.761C205.861 291.233 205.911 291.283 205.911 291.383V301.583C205.911 301.683 205.861 301.733 205.761 301.733H204.996ZM211.366 294.023C212.066 294.023 212.626 294.253 213.046 294.713C213.466 295.163 213.676 295.768 213.676 296.528V301.583C213.676 301.683 213.626 301.733 213.526 301.733H212.761C212.661 301.733 212.611 301.683 212.611 301.583V301.133C212.611 301.113 212.601 301.103 212.581 301.103C212.571 301.093 212.556 301.098 212.536 301.118C212.166 301.608 211.611 301.853 210.871 301.853C210.321 301.853 209.841 301.698 209.431 301.388C209.031 301.068 208.831 300.508 208.831 299.708C208.831 298.858 209.076 298.238 209.566 297.848C210.056 297.448 210.701 297.248 211.501 297.248H212.551C212.591 297.248 212.611 297.228 212.611 297.188V296.603C212.611 296.103 212.496 295.703 212.266 295.403C212.036 295.103 211.726 294.953 211.336 294.953C211.036 294.953 210.776 295.053 210.556 295.253C210.346 295.453 210.221 295.708 210.181 296.018C210.181 296.118 210.131 296.168 210.031 296.168L209.191 296.153C209.141 296.153 209.101 296.138 209.071 296.108C209.051 296.078 209.046 296.043 209.056 296.003C209.106 295.413 209.346 294.938 209.776 294.578C210.206 294.208 210.736 294.023 211.366 294.023ZM211.096 300.923C211.506 300.923 211.861 300.793 212.161 300.533C212.461 300.263 212.611 299.893 212.611 299.423V298.163C212.611 298.123 212.591 298.103 212.551 298.103H211.486C211.006 298.103 210.626 298.233 210.346 298.493C210.066 298.743 209.926 299.118 209.926 299.618C209.926 300.058 210.031 300.388 210.241 300.608C210.461 300.818 210.746 300.923 211.096 300.923ZM218.822 301.808C218.132 301.808 217.577 301.633 217.157 301.283C216.747 300.923 216.542 300.448 216.542 299.858V299.753C216.542 299.653 216.592 299.603 216.692 299.603H217.412C217.512 299.603 217.562 299.653 217.562 299.753V299.843C217.562 300.163 217.677 300.433 217.907 300.653C218.147 300.873 218.457 300.983 218.837 300.983C219.197 300.983 219.487 300.873 219.707 300.653C219.927 300.433 220.037 300.153 220.037 299.813C220.037 299.553 219.967 299.338 219.827 299.168C219.687 298.988 219.522 298.848 219.332 298.748C219.152 298.648 218.877 298.518 218.507 298.358C218.117 298.198 217.792 298.043 217.532 297.893C217.282 297.733 217.062 297.513 216.872 297.233C216.692 296.943 216.602 296.578 216.602 296.138C216.602 295.498 216.797 294.993 217.187 294.623C217.587 294.253 218.122 294.068 218.792 294.068C219.472 294.068 220.012 294.258 220.412 294.638C220.812 295.018 221.012 295.523 221.012 296.153V296.198C221.012 296.298 220.962 296.348 220.862 296.348H220.172C220.072 296.348 220.022 296.298 220.022 296.198V296.108C220.022 295.768 219.907 295.488 219.677 295.268C219.457 295.048 219.167 294.938 218.807 294.938C218.447 294.938 218.157 295.053 217.937 295.283C217.727 295.503 217.622 295.778 217.622 296.108C217.622 296.348 217.687 296.553 217.817 296.723C217.947 296.883 218.107 297.018 218.297 297.128C218.487 297.228 218.752 297.353 219.092 297.503C219.502 297.683 219.837 297.853 220.097 298.013C220.367 298.173 220.602 298.398 220.802 298.688C221.002 298.978 221.102 299.338 221.102 299.768C221.102 300.388 220.897 300.883 220.487 301.253C220.077 301.623 219.522 301.808 218.822 301.808ZM225.552 301.808C224.862 301.808 224.307 301.633 223.887 301.283C223.477 300.923 223.272 300.448 223.272 299.858V299.753C223.272 299.653 223.322 299.603 223.422 299.603H224.142C224.242 299.603 224.292 299.653 224.292 299.753V299.843C224.292 300.163 224.407 300.433 224.637 300.653C224.877 300.873 225.187 300.983 225.567 300.983C225.927 300.983 226.217 300.873 226.437 300.653C226.657 300.433 226.767 300.153 226.767 299.813C226.767 299.553 226.697 299.338 226.557 299.168C226.417 298.988 226.252 298.848 226.062 298.748C225.882 298.648 225.607 298.518 225.237 298.358C224.847 298.198 224.522 298.043 224.262 297.893C224.012 297.733 223.792 297.513 223.602 297.233C223.422 296.943 223.332 296.578 223.332 296.138C223.332 295.498 223.527 294.993 223.917 294.623C224.317 294.253 224.852 294.068 225.522 294.068C226.202 294.068 226.742 294.258 227.142 294.638C227.542 295.018 227.742 295.523 227.742 296.153V296.198C227.742 296.298 227.692 296.348 227.592 296.348H226.902C226.802 296.348 226.752 296.298 226.752 296.198V296.108C226.752 295.768 226.637 295.488 226.407 295.268C226.187 295.048 225.897 294.938 225.537 294.938C225.177 294.938 224.887 295.053 224.667 295.283C224.457 295.503 224.352 295.778 224.352 296.108C224.352 296.348 224.417 296.553 224.547 296.723C224.677 296.883 224.837 297.018 225.027 297.128C225.217 297.228 225.482 297.353 225.822 297.503C226.232 297.683 226.567 297.853 226.827 298.013C227.097 298.173 227.332 298.398 227.532 298.688C227.732 298.978 227.832 299.338 227.832 299.768C227.832 300.388 227.627 300.883 227.217 301.253C226.807 301.623 226.252 301.808 225.552 301.808ZM235.212 298.193C235.212 298.293 235.162 298.343 235.062 298.343H231.642C231.602 298.343 231.582 298.363 231.582 298.403V299.498C231.582 299.918 231.697 300.263 231.927 300.533C232.167 300.793 232.477 300.923 232.857 300.923C233.177 300.923 233.447 300.828 233.667 300.638C233.897 300.438 234.047 300.183 234.117 299.873C234.147 299.783 234.202 299.738 234.282 299.738L235.032 299.768C235.072 299.768 235.107 299.783 235.137 299.813C235.167 299.843 235.177 299.883 235.167 299.933C235.087 300.523 234.842 300.993 234.432 301.343C234.032 301.683 233.507 301.853 232.857 301.853C232.147 301.853 231.577 301.643 231.147 301.223C230.727 300.803 230.517 300.248 230.517 299.558V296.318C230.517 295.638 230.727 295.088 231.147 294.668C231.577 294.238 232.147 294.023 232.857 294.023C233.577 294.023 234.147 294.238 234.567 294.668C234.997 295.088 235.212 295.638 235.212 296.318V298.193ZM232.857 294.953C232.477 294.953 232.167 295.088 231.927 295.358C231.697 295.618 231.582 295.963 231.582 296.393V297.398C231.582 297.438 231.602 297.458 231.642 297.458H234.102C234.142 297.458 234.162 297.438 234.162 297.398V296.393C234.162 295.963 234.042 295.618 233.802 295.358C233.562 295.088 233.247 294.953 232.857 294.953ZM240.241 301.808C239.551 301.808 238.996 301.633 238.576 301.283C238.166 300.923 237.961 300.448 237.961 299.858V299.753C237.961 299.653 238.011 299.603 238.111 299.603H238.831C238.931 299.603 238.981 299.653 238.981 299.753V299.843C238.981 300.163 239.096 300.433 239.326 300.653C239.566 300.873 239.876 300.983 240.256 300.983C240.616 300.983 240.906 300.873 241.126 300.653C241.346 300.433 241.456 300.153 241.456 299.813C241.456 299.553 241.386 299.338 241.246 299.168C241.106 298.988 240.941 298.848 240.751 298.748C240.571 298.648 240.296 298.518 239.926 298.358C239.536 298.198 239.211 298.043 238.951 297.893C238.701 297.733 238.481 297.513 238.291 297.233C238.111 296.943 238.021 296.578 238.021 296.138C238.021 295.498 238.216 294.993 238.606 294.623C239.006 294.253 239.541 294.068 240.211 294.068C240.891 294.068 241.431 294.258 241.831 294.638C242.231 295.018 242.431 295.523 242.431 296.153V296.198C242.431 296.298 242.381 296.348 242.281 296.348H241.591C241.491 296.348 241.441 296.298 241.441 296.198V296.108C241.441 295.768 241.326 295.488 241.096 295.268C240.876 295.048 240.586 294.938 240.226 294.938C239.866 294.938 239.576 295.053 239.356 295.283C239.146 295.503 239.041 295.778 239.041 296.108C239.041 296.348 239.106 296.553 239.236 296.723C239.366 296.883 239.526 297.018 239.716 297.128C239.906 297.228 240.171 297.353 240.511 297.503C240.921 297.683 241.256 297.853 241.516 298.013C241.786 298.173 242.021 298.398 242.221 298.688C242.421 298.978 242.521 299.338 242.521 299.768C242.521 300.388 242.316 300.883 241.906 301.253C241.496 301.623 240.941 301.808 240.241 301.808ZM250.189 301.733C250.089 301.733 250.039 301.683 250.039 301.583V291.383C250.039 291.283 250.089 291.233 250.189 291.233H250.954C251.054 291.233 251.104 291.283 251.104 291.383V301.583C251.104 301.683 251.054 301.733 250.954 301.733H250.189ZM257.297 294.038C257.907 294.038 258.377 294.248 258.707 294.668C259.047 295.088 259.217 295.673 259.217 296.423V301.583C259.217 301.683 259.167 301.733 259.067 301.733H258.302C258.202 301.733 258.152 301.683 258.152 301.583V296.513C258.152 296.023 258.042 295.643 257.822 295.373C257.612 295.103 257.317 294.968 256.937 294.968C256.537 294.968 256.222 295.113 255.992 295.403C255.772 295.693 255.662 296.088 255.662 296.588V301.583C255.662 301.683 255.612 301.733 255.512 301.733H254.747C254.647 301.733 254.597 301.683 254.597 301.583V294.293C254.597 294.193 254.647 294.143 254.747 294.143H255.512C255.612 294.143 255.662 294.193 255.662 294.293V294.773C255.662 294.793 255.672 294.808 255.692 294.818C255.712 294.828 255.727 294.818 255.737 294.788C255.917 294.538 256.142 294.353 256.412 294.233C256.692 294.103 256.987 294.038 257.297 294.038ZM267.272 301.733C267.172 301.733 267.122 301.683 267.122 301.583V291.383C267.122 291.283 267.172 291.233 267.272 291.233H268.037C268.137 291.233 268.187 291.283 268.187 291.383V301.583C268.187 301.683 268.137 301.733 268.037 301.733H267.272ZM273.66 301.808C272.97 301.808 272.415 301.633 271.995 301.283C271.585 300.923 271.38 300.448 271.38 299.858V299.753C271.38 299.653 271.43 299.603 271.53 299.603H272.25C272.35 299.603 272.4 299.653 272.4 299.753V299.843C272.4 300.163 272.515 300.433 272.745 300.653C272.985 300.873 273.295 300.983 273.675 300.983C274.035 300.983 274.325 300.873 274.545 300.653C274.765 300.433 274.875 300.153 274.875 299.813C274.875 299.553 274.805 299.338 274.665 299.168C274.525 298.988 274.36 298.848 274.17 298.748C273.99 298.648 273.715 298.518 273.345 298.358C272.955 298.198 272.63 298.043 272.37 297.893C272.12 297.733 271.9 297.513 271.71 297.233C271.53 296.943 271.44 296.578 271.44 296.138C271.44 295.498 271.635 294.993 272.025 294.623C272.425 294.253 272.96 294.068 273.63 294.068C274.31 294.068 274.85 294.258 275.25 294.638C275.65 295.018 275.85 295.523 275.85 296.153V296.198C275.85 296.298 275.8 296.348 275.7 296.348H275.01C274.91 296.348 274.86 296.298 274.86 296.198V296.108C274.86 295.768 274.745 295.488 274.515 295.268C274.295 295.048 274.005 294.938 273.645 294.938C273.285 294.938 272.995 295.053 272.775 295.283C272.565 295.503 272.46 295.778 272.46 296.108C272.46 296.348 272.525 296.553 272.655 296.723C272.785 296.883 272.945 297.018 273.135 297.128C273.325 297.228 273.59 297.353 273.93 297.503C274.34 297.683 274.675 297.853 274.935 298.013C275.205 298.173 275.44 298.398 275.64 298.688C275.84 298.978 275.94 299.338 275.94 299.768C275.94 300.388 275.735 300.883 275.325 301.253C274.915 301.623 274.36 301.808 273.66 301.808ZM281.355 294.068C281.605 294.068 281.82 294.123 282 294.233C282.07 294.273 282.095 294.338 282.075 294.428L281.895 295.208C281.885 295.298 281.825 295.328 281.715 295.298C281.595 295.238 281.445 295.208 281.265 295.208C281.185 295.208 281.125 295.213 281.085 295.223C280.725 295.243 280.43 295.433 280.2 295.793C279.97 296.143 279.855 296.573 279.855 297.083V301.583C279.855 301.683 279.805 301.733 279.705 301.733H278.94C278.84 301.733 278.79 301.683 278.79 301.583V294.293C278.79 294.193 278.84 294.143 278.94 294.143H279.705C279.805 294.143 279.855 294.193 279.855 294.293V295.193C279.855 295.223 279.86 295.238 279.87 295.238C279.89 295.238 279.91 295.228 279.93 295.208C280.22 294.448 280.695 294.068 281.355 294.068ZM286.861 294.023C287.561 294.023 288.121 294.253 288.541 294.713C288.961 295.163 289.171 295.768 289.171 296.528V301.583C289.171 301.683 289.121 301.733 289.021 301.733H288.256C288.156 301.733 288.106 301.683 288.106 301.583V301.133C288.106 301.113 288.096 301.103 288.076 301.103C288.066 301.093 288.051 301.098 288.031 301.118C287.661 301.608 287.106 301.853 286.366 301.853C285.816 301.853 285.336 301.698 284.926 301.388C284.526 301.068 284.326 300.508 284.326 299.708C284.326 298.858 284.571 298.238 285.061 297.848C285.551 297.448 286.196 297.248 286.996 297.248H288.046C288.086 297.248 288.106 297.228 288.106 297.188V296.603C288.106 296.103 287.991 295.703 287.761 295.403C287.531 295.103 287.221 294.953 286.831 294.953C286.531 294.953 286.271 295.053 286.051 295.253C285.841 295.453 285.716 295.708 285.676 296.018C285.676 296.118 285.626 296.168 285.526 296.168L284.686 296.153C284.636 296.153 284.596 296.138 284.566 296.108C284.546 296.078 284.541 296.043 284.551 296.003C284.601 295.413 284.841 294.938 285.271 294.578C285.701 294.208 286.231 294.023 286.861 294.023ZM286.591 300.923C287.001 300.923 287.356 300.793 287.656 300.533C287.956 300.263 288.106 299.893 288.106 299.423V298.163C288.106 298.123 288.086 298.103 288.046 298.103H286.981C286.501 298.103 286.121 298.233 285.841 298.493C285.561 298.743 285.421 299.118 285.421 299.618C285.421 300.058 285.526 300.388 285.736 300.608C285.956 300.818 286.241 300.923 286.591 300.923ZM296.867 298.193C296.867 298.293 296.817 298.343 296.717 298.343H293.297C293.257 298.343 293.237 298.363 293.237 298.403V299.498C293.237 299.918 293.352 300.263 293.582 300.533C293.822 300.793 294.132 300.923 294.512 300.923C294.832 300.923 295.102 300.828 295.322 300.638C295.552 300.438 295.702 300.183 295.772 299.873C295.802 299.783 295.857 299.738 295.937 299.738L296.687 299.768C296.727 299.768 296.762 299.783 296.792 299.813C296.822 299.843 296.832 299.883 296.822 299.933C296.742 300.523 296.497 300.993 296.087 301.343C295.687 301.683 295.162 301.853 294.512 301.853C293.802 301.853 293.232 301.643 292.802 301.223C292.382 300.803 292.172 300.248 292.172 299.558V296.318C292.172 295.638 292.382 295.088 292.802 294.668C293.232 294.238 293.802 294.023 294.512 294.023C295.232 294.023 295.802 294.238 296.222 294.668C296.652 295.088 296.867 295.638 296.867 296.318V298.193ZM294.512 294.953C294.132 294.953 293.822 295.088 293.582 295.358C293.352 295.618 293.237 295.963 293.237 296.393V297.398C293.237 297.438 293.257 297.458 293.297 297.458H295.757C295.797 297.458 295.817 297.438 295.817 297.398V296.393C295.817 295.963 295.697 295.618 295.457 295.358C295.217 295.088 294.902 294.953 294.512 294.953ZM300.006 301.733C299.906 301.733 299.856 301.683 299.856 301.583V291.383C299.856 291.283 299.906 291.233 300.006 291.233H300.771C300.871 291.233 300.921 291.283 300.921 291.383V301.583C300.921 301.683 300.871 301.733 300.771 301.733H300.006ZM304.846 298.313C304.746 298.313 304.696 298.263 304.696 298.163L304.606 291.383C304.606 291.283 304.656 291.233 304.756 291.233H305.521C305.621 291.233 305.671 291.283 305.671 291.383L305.566 298.163C305.566 298.263 305.516 298.313 305.416 298.313H304.846ZM305.131 301.673C304.881 301.673 304.676 301.598 304.516 301.448C304.366 301.288 304.291 301.088 304.291 300.848C304.291 300.598 304.366 300.398 304.516 300.248C304.676 300.088 304.881 300.008 305.131 300.008C305.371 300.008 305.571 300.088 305.731 300.248C305.891 300.398 305.971 300.598 305.971 300.848C305.971 301.088 305.891 301.288 305.731 301.448C305.571 301.598 305.371 301.673 305.131 301.673Z" fill="white" fill-opacity="0.4"/>
</g>
</g>
<defs>
<filter id="filter0_ddi_103_409" x="81.8619" y="3.50671" width="110.331" height="174.533" filterUnits="userSpaceOnUse" color-interpolation-filters="sRGB">
<feFlood flood-opacity="0" result="BackgroundImageFix"/>
<feColorMatrix in="SourceAlpha" type="matrix" values="0 0 0 0 0 0 0 0 0 0 0 0 0 0 0 0 0 0 127 0" result="hardAlpha"/>
<feOffset dx="1" dy="1"/>
<feGaussianBlur stdDeviation="3.5"/>
<feComposite in2="hardAlpha" operator="out"/>
<feColorMatrix type="matrix" values="0 0 0 0 0.572263 0 0 0 0 0.245295 0 0 0 0 0.829167 0 0 0 1 0"/>
<feBlend mode="normal" in2="BackgroundImageFix" result="effect1_dropShadow_103_409"/>
<feColorMatrix in="SourceAlpha" type="matrix" values="0 0 0 0 0 0 0 0 0 0 0 0 0 0 0 0 0 0 127 0" result="hardAlpha"/>
<feOffset dx="1"/>
<feGaussianBlur stdDeviation="3.5"/>
<feComposite in2="hardAlpha" operator="out"/>
<feColorMatrix type="matrix" values="0 0 0 0 0.572263 0 0 0 0 0.245295 0 0 0 0 0.829167 0 0 0 1 0"/>
<feBlend mode="normal" in2="effect1_dropShadow_103_409" result="effect2_dropShadow_103_409"/>
<feBlend mode="normal" in="SourceGraphic" in2="effect2_dropShadow_103_409" result="shape"/>
<feColorMatrix in="SourceAlpha" type="matrix" values="0 0 0 0 0 0 0 0 0 0 0 0 0 0 0 0 0 0 127 0" result="hardAlpha"/>
<feOffset dy="4"/>
<feGaussianBlur stdDeviation="2"/>
<feComposite in2="hardAlpha" operator="arithmetic" k2="-1" k3="1"/>
<feColorMatrix type="matrix" values="0 0 0 0 0.572263 0 0 0 0 0.245295 0 0 0 0 0.829167 0 0 0 1 0"/>
<feBlend mode="normal" in2="shape" result="effect3_innerShadow_103_409"/>
</filter>
<filter id="filter1_ddi_103_409" x="51.6232" y="17.6882" width="123.575" height="198.347" filterUnits="userSpaceOnUse" color-interpolation-filters="sRGB">
<feFlood flood-opacity="0" result="BackgroundImageFix"/>
<feColorMatrix in="SourceAlpha" type="matrix" values="0 0 0 0 0 0 0 0 0 0 0 0 0 0 0 0 0 0 127 0" result="hardAlpha"/>
<feOffset dx="1" dy="1"/>
<feGaussianBlur stdDeviation="3.5"/>
<feComposite in2="hardAlpha" operator="out"/>
<feColorMatrix type="matrix" values="0 0 0 0 0.572263 0 0 0 0 0.245295 0 0 0 0 0.829167 0 0 0 1 0"/>
<feBlend mode="normal" in2="BackgroundImageFix" result="effect1_dropShadow_103_409"/>
<feColorMatrix in="SourceAlpha" type="matrix" values="0 0 0 0 0 0 0 0 0 0 0 0 0 0 0 0 0 0 127 0" result="hardAlpha"/>
<feOffset dx="1"/>
<feGaussianBlur stdDeviation="3.5"/>
<feComposite in2="hardAlpha" operator="out"/>
<feColorMatrix type="matrix" values="0 0 0 0 0.572263 0 0 0 0 0.245295 0 0 0 0 0.829167 0 0 0 1 0"/>
<feBlend mode="normal" in2="effect1_dropShadow_103_409" result="effect2_dropShadow_103_409"/>
<feBlend mode="normal" in="SourceGraphic" in2="effect2_dropShadow_103_409" result="shape"/>
<feColorMatrix in="SourceAlpha" type="matrix" values="0 0 0 0 0 0 0 0 0 0 0 0 0 0 0 0 0 0 127 0" result="hardAlpha"/>
<feOffset dy="4"/>
<feGaussianBlur stdDeviation="2"/>
<feComposite in2="hardAlpha" operator="arithmetic" k2="-1" k3="1"/>
<feColorMatrix type="matrix" values="0 0 0 0 0.572263 0 0 0 0 0.245295 0 0 0 0 0.829167 0 0 0 1 0"/>
<feBlend mode="normal" in2="shape" result="effect3_innerShadow_103_409"/>
</filter>
<filter id="filter2_ddi_103_409" x="190.31" y="6.80298" width="110.697" height="206.383" filterUnits="userSpaceOnUse" color-interpolation-filters="sRGB">
<feFlood flood-opacity="0" result="BackgroundImageFix"/>
<feColorMatrix in="SourceAlpha" type="matrix" values="0 0 0 0 0 0 0 0 0 0 0 0 0 0 0 0 0 0 127 0" result="hardAlpha"/>
<feOffset dx="1" dy="1"/>
<feGaussianBlur stdDeviation="3.5"/>
<feComposite in2="hardAlpha" operator="out"/>
<feColorMatrix type="matrix" values="0 0 0 0 0.572263 0 0 0 0 0.245295 0 0 0 0 0.829167 0 0 0 1 0"/>
<feBlend mode="normal" in2="BackgroundImageFix" result="effect1_dropShadow_103_409"/>
<feColorMatrix in="SourceAlpha" type="matrix" values="0 0 0 0 0 0 0 0 0 0 0 0 0 0 0 0 0 0 127 0" result="hardAlpha"/>
<feOffset dx="1"/>
<feGaussianBlur stdDeviation="3.5"/>
<feComposite in2="hardAlpha" operator="out"/>
<feColorMatrix type="matrix" values="0 0 0 0 0.572263 0 0 0 0 0.245295 0 0 0 0 0.829167 0 0 0 1 0"/>
<feBlend mode="normal" in2="effect1_dropShadow_103_409" result="effect2_dropShadow_103_409"/>
<feBlend mode="normal" in="SourceGraphic" in2="effect2_dropShadow_103_409" result="shape"/>
<feColorMatrix in="SourceAlpha" type="matrix" values="0 0 0 0 0 0 0 0 0 0 0 0 0 0 0 0 0 0 127 0" result="hardAlpha"/>
<feOffset dy="4"/>
<feGaussianBlur stdDeviation="2"/>
<feComposite in2="hardAlpha" operator="arithmetic" k2="-1" k3="1"/>
<feColorMatrix type="matrix" values="0 0 0 0 0.572263 0 0 0 0 0.245295 0 0 0 0 0.829167 0 0 0 1 0"/>
<feBlend mode="normal" in2="shape" result="effect3_innerShadow_103_409"/>
</filter>
<filter id="filter3_ddi_103_409" x="171.464" y="0.54248" width="98.8344" height="179.687" filterUnits="userSpaceOnUse" color-interpolation-filters="sRGB">
<feFlood flood-opacity="0" result="BackgroundImageFix"/>
<feColorMatrix in="SourceAlpha" type="matrix" values="0 0 0 0 0 0 0 0 0 0 0 0 0 0 0 0 0 0 127 0" result="hardAlpha"/>
<feOffset dx="1" dy="1"/>
<feGaussianBlur stdDeviation="3.5"/>
<feComposite in2="hardAlpha" operator="out"/>
<feColorMatrix type="matrix" values="0 0 0 0 0.572263 0 0 0 0 0.245295 0 0 0 0 0.829167 0 0 0 1 0"/>
<feBlend mode="normal" in2="BackgroundImageFix" result="effect1_dropShadow_103_409"/>
<feColorMatrix in="SourceAlpha" type="matrix" values="0 0 0 0 0 0 0 0 0 0 0 0 0 0 0 0 0 0 127 0" result="hardAlpha"/>
<feOffset dx="1"/>
<feGaussianBlur stdDeviation="3.5"/>
<feComposite in2="hardAlpha" operator="out"/>
<feColorMatrix type="matrix" values="0 0 0 0 0.572263 0 0 0 0 0.245295 0 0 0 0 0.829167 0 0 0 1 0"/>
<feBlend mode="normal" in2="effect1_dropShadow_103_409" result="effect2_dropShadow_103_409"/>
<feBlend mode="normal" in="SourceGraphic" in2="effect2_dropShadow_103_409" result="shape"/>
<feColorMatrix in="SourceAlpha" type="matrix" values="0 0 0 0 0 0 0 0 0 0 0 0 0 0 0 0 0 0 127 0" result="hardAlpha"/>
<feOffset dy="4"/>
<feGaussianBlur stdDeviation="2"/>
<feComposite in2="hardAlpha" operator="arithmetic" k2="-1" k3="1"/>
<feColorMatrix type="matrix" values="0 0 0 0 0.572263 0 0 0 0 0.245295 0 0 0 0 0.829167 0 0 0 1 0"/>
<feBlend mode="normal" in2="shape" result="effect3_innerShadow_103_409"/>
</filter>
<filter id="filter4_ddi_103_409" x="279.939" y="10.1132" width="23.149" height="203.513" filterUnits="userSpaceOnUse" color-interpolation-filters="sRGB">
<feFlood flood-opacity="0" result="BackgroundImageFix"/>
<feColorMatrix in="SourceAlpha" type="matrix" values="0 0 0 0 0 0 0 0 0 0 0 0 0 0 0 0 0 0 127 0" result="hardAlpha"/>
<feOffset dx="1" dy="1"/>
<feGaussianBlur stdDeviation="3.5"/>
<feComposite in2="hardAlpha" operator="out"/>
<feColorMatrix type="matrix" values="0 0 0 0 0.572263 0 0 0 0 0.245295 0 0 0 0 0.829167 0 0 0 1 0"/>
<feBlend mode="normal" in2="BackgroundImageFix" result="effect1_dropShadow_103_409"/>
<feColorMatrix in="SourceAlpha" type="matrix" values="0 0 0 0 0 0 0 0 0 0 0 0 0 0 0 0 0 0 127 0" result="hardAlpha"/>
<feOffset dx="1"/>
<feGaussianBlur stdDeviation="3.5"/>
<feComposite in2="hardAlpha" operator="out"/>
<feColorMatrix type="matrix" values="0 0 0 0 0.572263 0 0 0 0 0.245295 0 0 0 0 0.829167 0 0 0 1 0"/>
<feBlend mode="normal" in2="effect1_dropShadow_103_409" result="effect2_dropShadow_103_409"/>
<feBlend mode="normal" in="SourceGraphic" in2="effect2_dropShadow_103_409" result="shape"/>
<feColorMatrix in="SourceAlpha" type="matrix" values="0 0 0 0 0 0 0 0 0 0 0 0 0 0 0 0 0 0 127 0" result="hardAlpha"/>
<feOffset dy="4"/>
<feGaussianBlur stdDeviation="2"/>
<feComposite in2="hardAlpha" operator="arithmetic" k2="-1" k3="1"/>
<feColorMatrix type="matrix" values="0 0 0 0 0.572263 0 0 0 0 0.245295 0 0 0 0 0.829167 0 0 0 1 0"/>
<feBlend mode="normal" in2="shape" result="effect3_innerShadow_103_409"/>
</filter>
<filter id="filter5_ddi_103_409" x="52.3172" y="21.1132" width="23.149" height="203.513" filterUnits="userSpaceOnUse" color-interpolation-filters="sRGB">
<feFlood flood-opacity="0" result="BackgroundImageFix"/>
<feColorMatrix in="SourceAlpha" type="matrix" values="0 0 0 0 0 0 0 0 0 0 0 0 0 0 0 0 0 0 127 0" result="hardAlpha"/>
<feOffset dx="1" dy="1"/>
<feGaussianBlur stdDeviation="3.5"/>
<feComposite in2="hardAlpha" operator="out"/>
<feColorMatrix type="matrix" values="0 0 0 0 0.572263 0 0 0 0 0.245295 0 0 0 0 0.829167 0 0 0 1 0"/>
<feBlend mode="normal" in2="BackgroundImageFix" result="effect1_dropShadow_103_409"/>
<feColorMatrix in="SourceAlpha" type="matrix" values="0 0 0 0 0 0 0 0 0 0 0 0 0 0 0 0 0 0 127 0" result="hardAlpha"/>
<feOffset dx="1"/>
<feGaussianBlur stdDeviation="3.5"/>
<feComposite in2="hardAlpha" operator="out"/>
<feColorMatrix type="matrix" values="0 0 0 0 0.572263 0 0 0 0 0.245295 0 0 0 0 0.829167 0 0 0 1 0"/>
<feBlend mode="normal" in2="effect1_dropShadow_103_409" result="effect2_dropShadow_103_409"/>
<feBlend mode="normal" in="SourceGraphic" in2="effect2_dropShadow_103_409" result="shape"/>
<feColorMatrix in="SourceAlpha" type="matrix" values="0 0 0 0 0 0 0 0 0 0 0 0 0 0 0 0 0 0 127 0" result="hardAlpha"/>
<feOffset dy="4"/>
<feGaussianBlur stdDeviation="2"/>
<feComposite in2="hardAlpha" operator="arithmetic" k2="-1" k3="1"/>
<feColorMatrix type="matrix" values="0 0 0 0 0.572263 0 0 0 0 0.245295 0 0 0 0 0.829167 0 0 0 1 0"/>
<feBlend mode="normal" in2="shape" result="effect3_innerShadow_103_409"/>
</filter>
<filter id="filter6_dd_103_409" x="0.137939" y="187.293" width="351.562" height="127.44" filterUnits="userSpaceOnUse" color-interpolation-filters="sRGB">
<feFlood flood-opacity="0" result="BackgroundImageFix"/>
<feColorMatrix in="SourceAlpha" type="matrix" values="0 0 0 0 0 0 0 0 0 0 0 0 0 0 0 0 0 0 127 0" result="hardAlpha"/>
<feOffset dy="-1"/>
<feGaussianBlur stdDeviation="3"/>
<feComposite in2="hardAlpha" operator="out"/>
<feColorMatrix type="matrix" values="0 0 0 0 0.923 0 0 0 0 0.825 0 0 0 0 1 0 0 0 0.5 0"/>
<feBlend mode="normal" in2="BackgroundImageFix" result="effect1_dropShadow_103_409"/>
<feColorMatrix in="SourceAlpha" type="matrix" values="0 0 0 0 0 0 0 0 0 0 0 0 0 0 0 0 0 0 127 0" result="hardAlpha"/>
<feOffset dy="1"/>
<feGaussianBlur stdDeviation="22.5"/>
<feComposite in2="hardAlpha" operator="out"/>
<feColorMatrix type="matrix" values="0 0 0 0 1 0 0 0 0 1 0 0 0 0 1 0 0 0 0.6 0"/>
<feBlend mode="normal" in2="effect1_dropShadow_103_409" result="effect2_dropShadow_103_409"/>
<feBlend mode="normal" in="SourceGraphic" in2="effect2_dropShadow_103_409" result="shape"/>
</filter>
</defs>
</svg>
