<svg width="352" height="128" viewBox="0 0 352 128" fill="none" xmlns="http://www.w3.org/2000/svg">
<g id="Studio-on">
<g id="STUDIO" filter="url(#filter0_dd_103_407)">
<path d="M51.3779 81.733C50.2339 81.733 49.1766 81.4557 48.2059 80.901C47.2699 80.3464 46.5246 79.601 45.9699 78.665C45.4153 77.6944 45.1379 76.637 45.1379 75.493V74.037H49.3499V75.493C49.3499 76.0477 49.5406 76.533 49.9219 76.949C50.3379 77.3304 50.8233 77.521 51.3779 77.521H76.3379C76.8926 77.521 77.3606 77.3304 77.7419 76.949C78.1579 76.533 78.3659 76.0477 78.3659 75.493V67.121C78.3659 66.5664 78.1579 66.0984 77.7419 65.717C77.3606 65.3357 76.8926 65.145 76.3379 65.145H51.3779C50.2339 65.145 49.1766 64.8677 48.2059 64.313C47.2699 63.7237 46.5246 62.961 45.9699 62.025C45.4153 61.089 45.1379 60.049 45.1379 58.905V50.533C45.1379 49.389 45.4153 48.349 45.9699 47.413C46.5246 46.4424 47.2699 45.6797 48.2059 45.125C49.1766 44.5704 50.2339 44.293 51.3779 44.293H76.3379C77.4819 44.293 78.5219 44.5704 79.4579 45.125C80.4286 45.6797 81.1913 46.4424 81.7459 47.413C82.3006 48.349 82.5779 49.389 82.5779 50.533V51.989H78.3659V50.533C78.3659 49.9784 78.1579 49.5104 77.7419 49.129C77.3606 48.713 76.8926 48.505 76.3379 48.505H51.3779C50.8233 48.505 50.3379 48.713 49.9219 49.129C49.5406 49.5104 49.3499 49.9784 49.3499 50.533V58.905C49.3499 59.4597 49.5406 59.9277 49.9219 60.309C50.3379 60.6904 50.8233 60.881 51.3779 60.881H76.3379C77.4819 60.881 78.5219 61.1757 79.4579 61.765C80.4286 62.3197 81.1913 63.065 81.7459 64.001C82.3006 64.937 82.5779 65.977 82.5779 67.121V75.493C82.5779 76.637 82.3006 77.6944 81.7459 78.665C81.1913 79.601 80.4286 80.3464 79.4579 80.901C78.5219 81.4557 77.4819 81.733 76.3379 81.733H51.3779ZM111.764 81.733V48.505H95.1237V44.293H132.564V48.505H115.976V81.733H111.764ZM151.429 81.733C150.285 81.733 149.227 81.4557 148.257 80.901C147.321 80.3464 146.575 79.601 146.021 78.665C145.466 77.6944 145.189 76.637 145.189 75.493V44.293H149.401V75.493C149.401 76.0477 149.591 76.533 149.973 76.949C150.389 77.3304 150.874 77.521 151.429 77.521H176.389C176.943 77.521 177.411 77.3304 177.793 76.949C178.209 76.533 178.417 76.0477 178.417 75.493V44.293H182.629V75.493C182.629 76.637 182.351 77.6944 181.797 78.665C181.242 79.601 180.479 80.3464 179.509 80.901C178.573 81.4557 177.533 81.733 176.389 81.733H151.429ZM197.299 81.733V44.293H228.499C229.643 44.293 230.683 44.5704 231.619 45.125C232.59 45.6797 233.353 46.4424 233.907 47.413C234.462 48.349 234.739 49.389 234.739 50.533V75.493C234.739 76.637 234.462 77.6944 233.907 78.665C233.353 79.601 232.59 80.3464 231.619 80.901C230.683 81.4557 229.643 81.733 228.499 81.733H197.299ZM203.539 77.521H228.499C229.054 77.521 229.522 77.3304 229.903 76.949C230.319 76.533 230.527 76.0477 230.527 75.493V50.533C230.527 49.9784 230.319 49.5104 229.903 49.129C229.522 48.713 229.054 48.505 228.499 48.505H203.539C202.985 48.505 202.499 48.713 202.083 49.129C201.702 49.5104 201.511 49.9784 201.511 50.533V75.493C201.511 76.0477 201.702 76.533 202.083 76.949C202.499 77.3304 202.985 77.521 203.539 77.521ZM249.922 81.733V44.293H254.186V81.733H249.922ZM275.5 81.733C274.356 81.733 273.298 81.4557 272.328 80.901C271.392 80.3464 270.646 79.601 270.092 78.665C269.537 77.6944 269.26 76.637 269.26 75.493V50.533C269.26 49.389 269.537 48.349 270.092 47.413C270.646 46.4424 271.392 45.6797 272.328 45.125C273.298 44.5704 274.356 44.293 275.5 44.293H300.46C301.604 44.293 302.644 44.5704 303.58 45.125C304.55 45.6797 305.313 46.4424 305.868 47.413C306.422 48.349 306.7 49.389 306.7 50.533V75.493C306.7 76.637 306.422 77.6944 305.868 78.665C305.313 79.601 304.55 80.3464 303.58 80.901C302.644 81.4557 301.604 81.733 300.46 81.733H275.5ZM275.5 77.521H300.46C301.014 77.521 301.482 77.3304 301.864 76.949C302.28 76.533 302.488 76.0477 302.488 75.493V50.533C302.488 49.9784 302.28 49.5104 301.864 49.129C301.482 48.713 301.014 48.505 300.46 48.505H275.5C274.945 48.505 274.46 48.713 274.044 49.129C273.662 49.5104 273.472 49.9784 273.472 50.533V75.493C273.472 76.0477 273.662 76.533 274.044 76.949C274.46 77.3304 274.945 77.521 275.5 77.521Z" fill="#EAE3EF" fill-opacity="0.1" shape-rendering="crispEdges"/>
</g>
</g>
<defs>
<filter id="filter0_dd_103_407" x="0.137939" y="0.293091" width="351.562" height="127.44" filterUnits="userSpaceOnUse" color-interpolation-filters="sRGB">
<feFlood flood-opacity="0" result="BackgroundImageFix"/>
<feColorMatrix in="SourceAlpha" type="matrix" values="0 0 0 0 0 0 0 0 0 0 0 0 0 0 0 0 0 0 127 0" result="hardAlpha"/>
<feOffset dy="-1"/>
<feGaussianBlur stdDeviation="3"/>
<feComposite in2="hardAlpha" operator="out"/>
<feColorMatrix type="matrix" values="0 0 0 0 0.923 0 0 0 0 0.825 0 0 0 0 1 0 0 0 0.5 0"/>
<feBlend mode="normal" in2="BackgroundImageFix" result="effect1_dropShadow_103_407"/>
<feColorMatrix in="SourceAlpha" type="matrix" values="0 0 0 0 0 0 0 0 0 0 0 0 0 0 0 0 0 0 127 0" result="hardAlpha"/>
<feOffset dy="1"/>
<feGaussianBlur stdDeviation="22.5"/>
<feComposite in2="hardAlpha" operator="out"/>
<feColorMatrix type="matrix" values="0 0 0 0 1 0 0 0 0 1 0 0 0 0 1 0 0 0 0.6 0"/>
<feBlend mode="normal" in2="effect1_dropShadow_103_407" result="effect2_dropShadow_103_407"/>
<feBlend mode="normal" in="SourceGraphic" in2="effect2_dropShadow_103_407" result="shape"/>
</filter>
</defs>
</svg>
