<svg width="264" height="28" viewBox="0 0 264 28" fill="none" xmlns="http://www.w3.org/2000/svg">
<g id="Text-logo">
<path id="First reggeaton dance classes in israel!" d="M6.79963 11.013C6.79963 11.113 6.74963 11.163 6.64963 11.163H3.19963C3.15963 11.163 3.13963 11.183 3.13963 11.223V14.943C3.13963 14.983 3.15963 15.003 3.19963 15.003H5.37463C5.47463 15.003 5.52463 15.053 5.52463 15.153V15.798C5.52463 15.898 5.47463 15.948 5.37463 15.948H3.19963C3.15963 15.948 3.13963 15.968 3.13963 16.008V20.583C3.13963 20.683 3.08963 20.733 2.98963 20.733H2.22463C2.12463 20.733 2.07463 20.683 2.07463 20.583V10.383C2.07463 10.283 2.12463 10.233 2.22463 10.233H6.64963C6.74963 10.233 6.79963 10.283 6.79963 10.383V11.013ZM10.1191 11.763C9.86908 11.763 9.66408 11.683 9.50408 11.523C9.35408 11.363 9.27908 11.163 9.27908 10.923C9.27908 10.673 9.35408 10.473 9.50408 10.323C9.66408 10.163 9.86908 10.083 10.1191 10.083C10.3591 10.083 10.5541 10.163 10.7041 10.323C10.8641 10.473 10.9441 10.673 10.9441 10.923C10.9441 11.163 10.8641 11.363 10.7041 11.523C10.5541 11.683 10.3591 11.763 10.1191 11.763ZM9.74408 20.733C9.64408 20.733 9.59408 20.683 9.59408 20.583V13.293C9.59408 13.193 9.64408 13.143 9.74408 13.143H10.5091C10.6091 13.143 10.6591 13.193 10.6591 13.293V20.583C10.6591 20.683 10.6091 20.733 10.5091 20.733H9.74408ZM16.6592 13.068C16.9092 13.068 17.1242 13.123 17.3042 13.233C17.3742 13.273 17.3992 13.338 17.3792 13.428L17.1992 14.208C17.1892 14.298 17.1292 14.328 17.0192 14.298C16.8992 14.238 16.7492 14.208 16.5692 14.208C16.4892 14.208 16.4292 14.213 16.3892 14.223C16.0292 14.243 15.7342 14.433 15.5042 14.793C15.2742 15.143 15.1592 15.573 15.1592 16.083V20.583C15.1592 20.683 15.1092 20.733 15.0092 20.733H14.2442C14.1442 20.733 14.0942 20.683 14.0942 20.583V13.293C14.0942 13.193 14.1442 13.143 14.2442 13.143H15.0092C15.1092 13.143 15.1592 13.193 15.1592 13.293V14.193C15.1592 14.223 15.1642 14.238 15.1742 14.238C15.1942 14.238 15.2142 14.228 15.2342 14.208C15.5242 13.448 15.9992 13.068 16.6592 13.068ZM21.9541 20.808C21.2641 20.808 20.7091 20.633 20.2891 20.283C19.8791 19.923 19.6741 19.448 19.6741 18.858V18.753C19.6741 18.653 19.7241 18.603 19.8241 18.603H20.5441C20.6441 18.603 20.6941 18.653 20.6941 18.753V18.843C20.6941 19.163 20.8091 19.433 21.0391 19.653C21.2791 19.873 21.5891 19.983 21.9691 19.983C22.3291 19.983 22.6191 19.873 22.8391 19.653C23.0591 19.433 23.1691 19.153 23.1691 18.813C23.1691 18.553 23.0991 18.338 22.9591 18.168C22.8191 17.988 22.6541 17.848 22.4641 17.748C22.2841 17.648 22.0091 17.518 21.6391 17.358C21.2491 17.198 20.9241 17.043 20.6641 16.893C20.4141 16.733 20.1941 16.513 20.0041 16.233C19.8241 15.943 19.7341 15.578 19.7341 15.138C19.7341 14.498 19.9291 13.993 20.3191 13.623C20.7191 13.253 21.2541 13.068 21.9241 13.068C22.6041 13.068 23.1441 13.258 23.5441 13.638C23.9441 14.018 24.1441 14.523 24.1441 15.153V15.198C24.1441 15.298 24.0941 15.348 23.9941 15.348H23.3041C23.2041 15.348 23.1541 15.298 23.1541 15.198V15.108C23.1541 14.768 23.0391 14.488 22.8091 14.268C22.5891 14.048 22.2991 13.938 21.9391 13.938C21.5791 13.938 21.2891 14.053 21.0691 14.283C20.8591 14.503 20.7541 14.778 20.7541 15.108C20.7541 15.348 20.8191 15.553 20.9491 15.723C21.0791 15.883 21.2391 16.018 21.4291 16.128C21.6191 16.228 21.8841 16.353 22.2241 16.503C22.6341 16.683 22.9691 16.853 23.2291 17.013C23.4991 17.173 23.7341 17.398 23.9341 17.688C24.1341 17.978 24.2341 18.338 24.2341 18.768C24.2341 19.388 24.0291 19.883 23.6191 20.253C23.2091 20.623 22.6541 20.808 21.9541 20.808ZM29.7544 13.788C29.7544 13.888 29.7044 13.938 29.6044 13.938H28.4644C28.4244 13.938 28.4044 13.958 28.4044 13.998V18.588C28.4044 19.048 28.4844 19.368 28.6444 19.548C28.8044 19.718 29.0494 19.798 29.3794 19.788H29.5294C29.6294 19.788 29.6794 19.838 29.6794 19.938V20.583C29.6794 20.683 29.6294 20.733 29.5294 20.733H29.1544C28.5644 20.733 28.1144 20.608 27.8044 20.358C27.5044 20.098 27.3544 19.613 27.3544 18.903V13.998C27.3544 13.958 27.3344 13.938 27.2944 13.938H26.7094C26.6094 13.938 26.5594 13.888 26.5594 13.788V13.293C26.5594 13.193 26.6094 13.143 26.7094 13.143H27.2944C27.3344 13.143 27.3544 13.123 27.3544 13.083V11.403C27.3544 11.303 27.4044 11.253 27.5044 11.253H28.2544C28.3544 11.253 28.4044 11.303 28.4044 11.403V13.083C28.4044 13.123 28.4244 13.143 28.4644 13.143H29.6044C29.7044 13.143 29.7544 13.193 29.7544 13.293V13.788ZM41.4514 20.733C41.3614 20.733 41.3014 20.693 41.2714 20.613L39.7414 15.978C39.7314 15.948 39.7114 15.933 39.6814 15.933H38.3764C38.3364 15.933 38.3164 15.953 38.3164 15.993V20.583C38.3164 20.683 38.2664 20.733 38.1664 20.733H37.4014C37.3014 20.733 37.2514 20.683 37.2514 20.583V10.383C37.2514 10.283 37.3014 10.233 37.4014 10.233H39.8764C40.6064 10.233 41.1964 10.503 41.6464 11.043C42.0964 11.573 42.3214 12.268 42.3214 13.128C42.3214 13.778 42.1814 14.338 41.9014 14.808C41.6214 15.278 41.2414 15.608 40.7614 15.798C40.7214 15.808 40.7064 15.833 40.7164 15.873L42.3514 20.568L42.3664 20.628C42.3664 20.698 42.3214 20.733 42.2314 20.733H41.4514ZM38.3764 11.163C38.3364 11.163 38.3164 11.183 38.3164 11.223V15.018C38.3164 15.058 38.3364 15.078 38.3764 15.078H39.7264C40.1864 15.078 40.5564 14.903 40.8364 14.553C41.1164 14.193 41.2564 13.718 41.2564 13.128C41.2564 12.538 41.1164 12.063 40.8364 11.703C40.5564 11.343 40.1864 11.163 39.7264 11.163H38.3764ZM49.7668 17.193C49.7668 17.293 49.7168 17.343 49.6168 17.343H46.1968C46.1568 17.343 46.1368 17.363 46.1368 17.403V18.498C46.1368 18.918 46.2518 19.263 46.4818 19.533C46.7218 19.793 47.0318 19.923 47.4118 19.923C47.7318 19.923 48.0018 19.828 48.2218 19.638C48.4518 19.438 48.6018 19.183 48.6718 18.873C48.7018 18.783 48.7568 18.738 48.8368 18.738L49.5868 18.768C49.6268 18.768 49.6618 18.783 49.6918 18.813C49.7218 18.843 49.7318 18.883 49.7218 18.933C49.6418 19.523 49.3968 19.993 48.9868 20.343C48.5868 20.683 48.0618 20.853 47.4118 20.853C46.7018 20.853 46.1318 20.643 45.7018 20.223C45.2818 19.803 45.0718 19.248 45.0718 18.558V15.318C45.0718 14.638 45.2818 14.088 45.7018 13.668C46.1318 13.238 46.7018 13.023 47.4118 13.023C48.1318 13.023 48.7018 13.238 49.1218 13.668C49.5518 14.088 49.7668 14.638 49.7668 15.318V17.193ZM47.4118 13.953C47.0318 13.953 46.7218 14.088 46.4818 14.358C46.2518 14.618 46.1368 14.963 46.1368 15.393V16.398C46.1368 16.438 46.1568 16.458 46.1968 16.458H48.6568C48.6968 16.458 48.7168 16.438 48.7168 16.398V15.393C48.7168 14.963 48.5968 14.618 48.3568 14.358C48.1168 14.088 47.8018 13.953 47.4118 13.953ZM56.2952 13.293C56.2952 13.193 56.3452 13.143 56.4452 13.143H57.2102C57.3102 13.143 57.3602 13.193 57.3602 13.293V20.583C57.3602 21.653 57.1102 22.463 56.6102 23.013C56.1202 23.573 55.2952 23.828 54.1352 23.778C54.0352 23.768 53.9852 23.713 53.9852 23.613V22.968C53.9852 22.868 54.0352 22.818 54.1352 22.818C54.9352 22.838 55.4952 22.653 55.8152 22.263C56.1352 21.883 56.2952 21.293 56.2952 20.493V20.043C56.2952 20.023 56.2852 20.008 56.2652 19.998C56.2552 19.988 56.2402 19.993 56.2202 20.013C56.0502 20.263 55.8302 20.453 55.5602 20.583C55.3002 20.713 55.0202 20.778 54.7202 20.778C54.0902 20.778 53.5902 20.568 53.2202 20.148C52.8602 19.728 52.6802 19.173 52.6802 18.483V15.318C52.6802 14.618 52.8602 14.063 53.2202 13.653C53.5902 13.233 54.0902 13.023 54.7202 13.023C55.0202 13.023 55.3002 13.088 55.5602 13.218C55.8302 13.338 56.0502 13.523 56.2202 13.773C56.2402 13.803 56.2552 13.818 56.2652 13.818C56.2852 13.808 56.2952 13.788 56.2952 13.758V13.293ZM55.0352 19.848C55.4052 19.848 55.7052 19.718 55.9352 19.458C56.1752 19.188 56.2952 18.843 56.2952 18.423V15.393C56.2952 14.963 56.1752 14.618 55.9352 14.358C55.7052 14.088 55.4052 13.953 55.0352 13.953C54.6552 13.953 54.3452 14.088 54.1052 14.358C53.8652 14.618 53.7452 14.963 53.7452 15.393V18.423C53.7452 18.843 53.8652 19.188 54.1052 19.458C54.3452 19.718 54.6552 19.848 55.0352 19.848ZM63.9915 13.293C63.9915 13.193 64.0415 13.143 64.1415 13.143H64.9065C65.0065 13.143 65.0565 13.193 65.0565 13.293V20.583C65.0565 21.653 64.8065 22.463 64.3065 23.013C63.8165 23.573 62.9915 23.828 61.8315 23.778C61.7315 23.768 61.6815 23.713 61.6815 23.613V22.968C61.6815 22.868 61.7315 22.818 61.8315 22.818C62.6315 22.838 63.1915 22.653 63.5115 22.263C63.8315 21.883 63.9915 21.293 63.9915 20.493V20.043C63.9915 20.023 63.9815 20.008 63.9615 19.998C63.9515 19.988 63.9365 19.993 63.9165 20.013C63.7465 20.263 63.5265 20.453 63.2565 20.583C62.9965 20.713 62.7165 20.778 62.4165 20.778C61.7865 20.778 61.2865 20.568 60.9165 20.148C60.5565 19.728 60.3765 19.173 60.3765 18.483V15.318C60.3765 14.618 60.5565 14.063 60.9165 13.653C61.2865 13.233 61.7865 13.023 62.4165 13.023C62.7165 13.023 62.9965 13.088 63.2565 13.218C63.5265 13.338 63.7465 13.523 63.9165 13.773C63.9365 13.803 63.9515 13.818 63.9615 13.818C63.9815 13.808 63.9915 13.788 63.9915 13.758V13.293ZM62.7315 19.848C63.1015 19.848 63.4015 19.718 63.6315 19.458C63.8715 19.188 63.9915 18.843 63.9915 18.423V15.393C63.9915 14.963 63.8715 14.618 63.6315 14.358C63.4015 14.088 63.1015 13.953 62.7315 13.953C62.3515 13.953 62.0415 14.088 61.8015 14.358C61.5615 14.618 61.4415 14.963 61.4415 15.393V18.423C61.4415 18.843 61.5615 19.188 61.8015 19.458C62.0415 19.718 62.3515 19.848 62.7315 19.848ZM72.7678 17.193C72.7678 17.293 72.7178 17.343 72.6178 17.343H69.1978C69.1578 17.343 69.1378 17.363 69.1378 17.403V18.498C69.1378 18.918 69.2528 19.263 69.4828 19.533C69.7228 19.793 70.0328 19.923 70.4128 19.923C70.7328 19.923 71.0028 19.828 71.2228 19.638C71.4528 19.438 71.6028 19.183 71.6728 18.873C71.7028 18.783 71.7578 18.738 71.8378 18.738L72.5878 18.768C72.6278 18.768 72.6628 18.783 72.6928 18.813C72.7228 18.843 72.7328 18.883 72.7228 18.933C72.6428 19.523 72.3978 19.993 71.9878 20.343C71.5878 20.683 71.0628 20.853 70.4128 20.853C69.7028 20.853 69.1328 20.643 68.7028 20.223C68.2828 19.803 68.0728 19.248 68.0728 18.558V15.318C68.0728 14.638 68.2828 14.088 68.7028 13.668C69.1328 13.238 69.7028 13.023 70.4128 13.023C71.1328 13.023 71.7028 13.238 72.1228 13.668C72.5528 14.088 72.7678 14.638 72.7678 15.318V17.193ZM70.4128 13.953C70.0328 13.953 69.7228 14.088 69.4828 14.358C69.2528 14.618 69.1378 14.963 69.1378 15.393V16.398C69.1378 16.438 69.1578 16.458 69.1978 16.458H71.6578C71.6978 16.458 71.7178 16.438 71.7178 16.398V15.393C71.7178 14.963 71.5978 14.618 71.3578 14.358C71.1178 14.088 70.8028 13.953 70.4128 13.953ZM78.0076 13.023C78.7076 13.023 79.2676 13.253 79.6876 13.713C80.1076 14.163 80.3176 14.768 80.3176 15.528V20.583C80.3176 20.683 80.2676 20.733 80.1676 20.733H79.4026C79.3026 20.733 79.2526 20.683 79.2526 20.583V20.133C79.2526 20.113 79.2426 20.103 79.2226 20.103C79.2126 20.093 79.1976 20.098 79.1776 20.118C78.8076 20.608 78.2526 20.853 77.5126 20.853C76.9626 20.853 76.4826 20.698 76.0726 20.388C75.6726 20.068 75.4726 19.508 75.4726 18.708C75.4726 17.858 75.7176 17.238 76.2076 16.848C76.6976 16.448 77.3426 16.248 78.1426 16.248H79.1926C79.2326 16.248 79.2526 16.228 79.2526 16.188V15.603C79.2526 15.103 79.1376 14.703 78.9076 14.403C78.6776 14.103 78.3676 13.953 77.9776 13.953C77.6776 13.953 77.4176 14.053 77.1976 14.253C76.9876 14.453 76.8626 14.708 76.8226 15.018C76.8226 15.118 76.7726 15.168 76.6726 15.168L75.8326 15.153C75.7826 15.153 75.7426 15.138 75.7126 15.108C75.6926 15.078 75.6876 15.043 75.6976 15.003C75.7476 14.413 75.9876 13.938 76.4176 13.578C76.8476 13.208 77.3776 13.023 78.0076 13.023ZM77.7376 19.923C78.1476 19.923 78.5026 19.793 78.8026 19.533C79.1026 19.263 79.2526 18.893 79.2526 18.423V17.163C79.2526 17.123 79.2326 17.103 79.1926 17.103H78.1276C77.6476 17.103 77.2676 17.233 76.9876 17.493C76.7076 17.743 76.5676 18.118 76.5676 18.618C76.5676 19.058 76.6726 19.388 76.8826 19.608C77.1026 19.818 77.3876 19.923 77.7376 19.923ZM86.1538 13.788C86.1538 13.888 86.1038 13.938 86.0038 13.938H84.8638C84.8238 13.938 84.8038 13.958 84.8038 13.998V18.588C84.8038 19.048 84.8838 19.368 85.0438 19.548C85.2038 19.718 85.4488 19.798 85.7788 19.788H85.9288C86.0288 19.788 86.0788 19.838 86.0788 19.938V20.583C86.0788 20.683 86.0288 20.733 85.9288 20.733H85.5538C84.9638 20.733 84.5138 20.608 84.2038 20.358C83.9038 20.098 83.7538 19.613 83.7538 18.903V13.998C83.7538 13.958 83.7338 13.938 83.6938 13.938H83.1088C83.0088 13.938 82.9588 13.888 82.9588 13.788V13.293C82.9588 13.193 83.0088 13.143 83.1088 13.143H83.6938C83.7338 13.143 83.7538 13.123 83.7538 13.083V11.403C83.7538 11.303 83.8038 11.253 83.9038 11.253H84.6538C84.7538 11.253 84.8038 11.303 84.8038 11.403V13.083C84.8038 13.123 84.8238 13.143 84.8638 13.143H86.0038C86.1038 13.143 86.1538 13.193 86.1538 13.293V13.788ZM91.1729 20.853C90.4529 20.853 89.8779 20.643 89.4479 20.223C89.0279 19.803 88.8179 19.248 88.8179 18.558V15.333C88.8179 14.653 89.0329 14.098 89.4629 13.668C89.8929 13.238 90.4629 13.023 91.1729 13.023C91.8929 13.023 92.4679 13.238 92.8979 13.668C93.3279 14.098 93.5429 14.653 93.5429 15.333V18.558C93.5429 19.248 93.3279 19.803 92.8979 20.223C92.4679 20.643 91.8929 20.853 91.1729 20.853ZM91.1729 19.908C91.5529 19.908 91.8629 19.778 92.1029 19.518C92.3529 19.258 92.4779 18.913 92.4779 18.483V15.393C92.4779 14.963 92.3529 14.618 92.1029 14.358C91.8629 14.088 91.5529 13.953 91.1729 13.953C90.7929 13.953 90.4829 14.088 90.2429 14.358C90.0029 14.618 89.8829 14.963 89.8829 15.393V18.483C89.8829 18.913 90.0029 19.258 90.2429 19.518C90.4829 19.778 90.7929 19.908 91.1729 19.908ZM99.4085 13.038C100.018 13.038 100.488 13.248 100.818 13.668C101.158 14.088 101.328 14.673 101.328 15.423V20.583C101.328 20.683 101.278 20.733 101.178 20.733H100.413C100.313 20.733 100.263 20.683 100.263 20.583V15.513C100.263 15.023 100.153 14.643 99.9335 14.373C99.7235 14.103 99.4285 13.968 99.0485 13.968C98.6485 13.968 98.3335 14.113 98.1035 14.403C97.8835 14.693 97.7735 15.088 97.7735 15.588V20.583C97.7735 20.683 97.7235 20.733 97.6235 20.733H96.8585C96.7585 20.733 96.7085 20.683 96.7085 20.583V13.293C96.7085 13.193 96.7585 13.143 96.8585 13.143H97.6235C97.7235 13.143 97.7735 13.193 97.7735 13.293V13.773C97.7735 13.793 97.7835 13.808 97.8035 13.818C97.8235 13.828 97.8385 13.818 97.8485 13.788C98.0285 13.538 98.2535 13.353 98.5235 13.233C98.8035 13.103 99.0985 13.038 99.4085 13.038ZM109.384 20.733C109.284 20.733 109.234 20.683 109.234 20.583V10.383C109.234 10.283 109.284 10.233 109.384 10.233H111.694C112.464 10.233 113.079 10.488 113.539 10.998C113.999 11.498 114.229 12.173 114.229 13.023V17.943C114.229 18.793 113.999 19.473 113.539 19.983C113.079 20.483 112.464 20.733 111.694 20.733H109.384ZM110.299 19.743C110.299 19.783 110.319 19.803 110.359 19.803L111.679 19.788C112.119 19.788 112.469 19.618 112.729 19.278C112.999 18.938 113.139 18.478 113.149 17.898V13.068C113.149 12.478 113.019 12.013 112.759 11.673C112.499 11.333 112.139 11.163 111.679 11.163H110.359C110.319 11.163 110.299 11.183 110.299 11.223V19.743ZM119.761 13.023C120.461 13.023 121.021 13.253 121.441 13.713C121.861 14.163 122.071 14.768 122.071 15.528V20.583C122.071 20.683 122.021 20.733 121.921 20.733H121.156C121.056 20.733 121.006 20.683 121.006 20.583V20.133C121.006 20.113 120.996 20.103 120.976 20.103C120.966 20.093 120.951 20.098 120.931 20.118C120.561 20.608 120.006 20.853 119.266 20.853C118.716 20.853 118.236 20.698 117.826 20.388C117.426 20.068 117.226 19.508 117.226 18.708C117.226 17.858 117.471 17.238 117.961 16.848C118.451 16.448 119.096 16.248 119.896 16.248H120.946C120.986 16.248 121.006 16.228 121.006 16.188V15.603C121.006 15.103 120.891 14.703 120.661 14.403C120.431 14.103 120.121 13.953 119.731 13.953C119.431 13.953 119.171 14.053 118.951 14.253C118.741 14.453 118.616 14.708 118.576 15.018C118.576 15.118 118.526 15.168 118.426 15.168L117.586 15.153C117.536 15.153 117.496 15.138 117.466 15.108C117.446 15.078 117.441 15.043 117.451 15.003C117.501 14.413 117.741 13.938 118.171 13.578C118.601 13.208 119.131 13.023 119.761 13.023ZM119.491 19.923C119.901 19.923 120.256 19.793 120.556 19.533C120.856 19.263 121.006 18.893 121.006 18.423V17.163C121.006 17.123 120.986 17.103 120.946 17.103H119.881C119.401 17.103 119.021 17.233 118.741 17.493C118.461 17.743 118.321 18.118 118.321 18.618C118.321 19.058 118.426 19.388 118.636 19.608C118.856 19.818 119.141 19.923 119.491 19.923ZM127.938 13.038C128.548 13.038 129.018 13.248 129.348 13.668C129.688 14.088 129.858 14.673 129.858 15.423V20.583C129.858 20.683 129.808 20.733 129.708 20.733H128.943C128.843 20.733 128.793 20.683 128.793 20.583V15.513C128.793 15.023 128.683 14.643 128.463 14.373C128.253 14.103 127.958 13.968 127.578 13.968C127.178 13.968 126.863 14.113 126.633 14.403C126.413 14.693 126.303 15.088 126.303 15.588V20.583C126.303 20.683 126.253 20.733 126.153 20.733H125.388C125.288 20.733 125.238 20.683 125.238 20.583V13.293C125.238 13.193 125.288 13.143 125.388 13.143H126.153C126.253 13.143 126.303 13.193 126.303 13.293V13.773C126.303 13.793 126.313 13.808 126.333 13.818C126.353 13.828 126.368 13.818 126.378 13.788C126.558 13.538 126.783 13.353 127.053 13.233C127.333 13.103 127.628 13.038 127.938 13.038ZM135.27 20.853C134.56 20.853 133.99 20.643 133.56 20.223C133.14 19.803 132.93 19.248 132.93 18.558V15.318C132.93 14.638 133.145 14.088 133.575 13.668C134.005 13.238 134.57 13.023 135.27 13.023C135.74 13.023 136.155 13.118 136.515 13.308C136.875 13.498 137.15 13.753 137.34 14.073C137.54 14.383 137.64 14.728 137.64 15.108V15.258C137.64 15.358 137.59 15.408 137.49 15.408L136.725 15.438C136.625 15.438 136.575 15.388 136.575 15.288V15.183C136.575 14.853 136.45 14.568 136.2 14.328C135.96 14.078 135.65 13.953 135.27 13.953C134.89 13.953 134.58 14.088 134.34 14.358C134.11 14.618 133.995 14.963 133.995 15.393V18.483C133.995 18.913 134.11 19.263 134.34 19.533C134.58 19.793 134.89 19.923 135.27 19.923C135.65 19.923 135.96 19.803 136.2 19.563C136.45 19.313 136.575 19.023 136.575 18.693V18.588C136.575 18.488 136.625 18.438 136.725 18.438L137.49 18.453C137.59 18.453 137.64 18.503 137.64 18.603V18.768C137.64 19.368 137.42 19.868 136.98 20.268C136.55 20.658 135.98 20.853 135.27 20.853ZM145.16 17.193C145.16 17.293 145.11 17.343 145.01 17.343H141.59C141.55 17.343 141.53 17.363 141.53 17.403V18.498C141.53 18.918 141.645 19.263 141.875 19.533C142.115 19.793 142.425 19.923 142.805 19.923C143.125 19.923 143.395 19.828 143.615 19.638C143.845 19.438 143.995 19.183 144.065 18.873C144.095 18.783 144.15 18.738 144.23 18.738L144.98 18.768C145.02 18.768 145.055 18.783 145.085 18.813C145.115 18.843 145.125 18.883 145.115 18.933C145.035 19.523 144.79 19.993 144.38 20.343C143.98 20.683 143.455 20.853 142.805 20.853C142.095 20.853 141.525 20.643 141.095 20.223C140.675 19.803 140.465 19.248 140.465 18.558V15.318C140.465 14.638 140.675 14.088 141.095 13.668C141.525 13.238 142.095 13.023 142.805 13.023C143.525 13.023 144.095 13.238 144.515 13.668C144.945 14.088 145.16 14.638 145.16 15.318V17.193ZM142.805 13.953C142.425 13.953 142.115 14.088 141.875 14.358C141.645 14.618 141.53 14.963 141.53 15.393V16.398C141.53 16.438 141.55 16.458 141.59 16.458H144.05C144.09 16.458 144.11 16.438 144.11 16.398V15.393C144.11 14.963 143.99 14.618 143.75 14.358C143.51 14.088 143.195 13.953 142.805 13.953ZM155.202 20.853C154.432 20.853 153.812 20.618 153.342 20.148C152.882 19.678 152.652 19.048 152.652 18.258V12.693C152.652 11.913 152.882 11.288 153.342 10.818C153.812 10.348 154.432 10.113 155.202 10.113C155.982 10.113 156.602 10.348 157.062 10.818C157.532 11.278 157.767 11.903 157.767 12.693V12.948C157.767 13.048 157.717 13.098 157.617 13.098L156.837 13.143C156.737 13.143 156.687 13.093 156.687 12.993V12.618C156.687 12.148 156.552 11.768 156.282 11.478C156.012 11.188 155.652 11.043 155.202 11.043C154.762 11.043 154.402 11.188 154.122 11.478C153.852 11.768 153.717 12.148 153.717 12.618V18.348C153.717 18.818 153.852 19.198 154.122 19.488C154.402 19.778 154.762 19.923 155.202 19.923C155.652 19.923 156.012 19.778 156.282 19.488C156.552 19.198 156.687 18.818 156.687 18.348V17.973C156.687 17.873 156.737 17.823 156.837 17.823L157.617 17.868C157.717 17.868 157.767 17.918 157.767 18.018V18.258C157.767 19.048 157.532 19.678 157.062 20.148C156.592 20.618 155.972 20.853 155.202 20.853ZM160.996 20.733C160.896 20.733 160.846 20.683 160.846 20.583V10.383C160.846 10.283 160.896 10.233 160.996 10.233H161.761C161.861 10.233 161.911 10.283 161.911 10.383V20.583C161.911 20.683 161.861 20.733 161.761 20.733H160.996ZM167.366 13.023C168.066 13.023 168.626 13.253 169.046 13.713C169.466 14.163 169.676 14.768 169.676 15.528V20.583C169.676 20.683 169.626 20.733 169.526 20.733H168.761C168.661 20.733 168.611 20.683 168.611 20.583V20.133C168.611 20.113 168.601 20.103 168.581 20.103C168.571 20.093 168.556 20.098 168.536 20.118C168.166 20.608 167.611 20.853 166.871 20.853C166.321 20.853 165.841 20.698 165.431 20.388C165.031 20.068 164.831 19.508 164.831 18.708C164.831 17.858 165.076 17.238 165.566 16.848C166.056 16.448 166.701 16.248 167.501 16.248H168.551C168.591 16.248 168.611 16.228 168.611 16.188V15.603C168.611 15.103 168.496 14.703 168.266 14.403C168.036 14.103 167.726 13.953 167.336 13.953C167.036 13.953 166.776 14.053 166.556 14.253C166.346 14.453 166.221 14.708 166.181 15.018C166.181 15.118 166.131 15.168 166.031 15.168L165.191 15.153C165.141 15.153 165.101 15.138 165.071 15.108C165.051 15.078 165.046 15.043 165.056 15.003C165.106 14.413 165.346 13.938 165.776 13.578C166.206 13.208 166.736 13.023 167.366 13.023ZM167.096 19.923C167.506 19.923 167.861 19.793 168.161 19.533C168.461 19.263 168.611 18.893 168.611 18.423V17.163C168.611 17.123 168.591 17.103 168.551 17.103H167.486C167.006 17.103 166.626 17.233 166.346 17.493C166.066 17.743 165.926 18.118 165.926 18.618C165.926 19.058 166.031 19.388 166.241 19.608C166.461 19.818 166.746 19.923 167.096 19.923ZM174.822 20.808C174.132 20.808 173.577 20.633 173.157 20.283C172.747 19.923 172.542 19.448 172.542 18.858V18.753C172.542 18.653 172.592 18.603 172.692 18.603H173.412C173.512 18.603 173.562 18.653 173.562 18.753V18.843C173.562 19.163 173.677 19.433 173.907 19.653C174.147 19.873 174.457 19.983 174.837 19.983C175.197 19.983 175.487 19.873 175.707 19.653C175.927 19.433 176.037 19.153 176.037 18.813C176.037 18.553 175.967 18.338 175.827 18.168C175.687 17.988 175.522 17.848 175.332 17.748C175.152 17.648 174.877 17.518 174.507 17.358C174.117 17.198 173.792 17.043 173.532 16.893C173.282 16.733 173.062 16.513 172.872 16.233C172.692 15.943 172.602 15.578 172.602 15.138C172.602 14.498 172.797 13.993 173.187 13.623C173.587 13.253 174.122 13.068 174.792 13.068C175.472 13.068 176.012 13.258 176.412 13.638C176.812 14.018 177.012 14.523 177.012 15.153V15.198C177.012 15.298 176.962 15.348 176.862 15.348H176.172C176.072 15.348 176.022 15.298 176.022 15.198V15.108C176.022 14.768 175.907 14.488 175.677 14.268C175.457 14.048 175.167 13.938 174.807 13.938C174.447 13.938 174.157 14.053 173.937 14.283C173.727 14.503 173.622 14.778 173.622 15.108C173.622 15.348 173.687 15.553 173.817 15.723C173.947 15.883 174.107 16.018 174.297 16.128C174.487 16.228 174.752 16.353 175.092 16.503C175.502 16.683 175.837 16.853 176.097 17.013C176.367 17.173 176.602 17.398 176.802 17.688C177.002 17.978 177.102 18.338 177.102 18.768C177.102 19.388 176.897 19.883 176.487 20.253C176.077 20.623 175.522 20.808 174.822 20.808ZM181.552 20.808C180.862 20.808 180.307 20.633 179.887 20.283C179.477 19.923 179.272 19.448 179.272 18.858V18.753C179.272 18.653 179.322 18.603 179.422 18.603H180.142C180.242 18.603 180.292 18.653 180.292 18.753V18.843C180.292 19.163 180.407 19.433 180.637 19.653C180.877 19.873 181.187 19.983 181.567 19.983C181.927 19.983 182.217 19.873 182.437 19.653C182.657 19.433 182.767 19.153 182.767 18.813C182.767 18.553 182.697 18.338 182.557 18.168C182.417 17.988 182.252 17.848 182.062 17.748C181.882 17.648 181.607 17.518 181.237 17.358C180.847 17.198 180.522 17.043 180.262 16.893C180.012 16.733 179.792 16.513 179.602 16.233C179.422 15.943 179.332 15.578 179.332 15.138C179.332 14.498 179.527 13.993 179.917 13.623C180.317 13.253 180.852 13.068 181.522 13.068C182.202 13.068 182.742 13.258 183.142 13.638C183.542 14.018 183.742 14.523 183.742 15.153V15.198C183.742 15.298 183.692 15.348 183.592 15.348H182.902C182.802 15.348 182.752 15.298 182.752 15.198V15.108C182.752 14.768 182.637 14.488 182.407 14.268C182.187 14.048 181.897 13.938 181.537 13.938C181.177 13.938 180.887 14.053 180.667 14.283C180.457 14.503 180.352 14.778 180.352 15.108C180.352 15.348 180.417 15.553 180.547 15.723C180.677 15.883 180.837 16.018 181.027 16.128C181.217 16.228 181.482 16.353 181.822 16.503C182.232 16.683 182.567 16.853 182.827 17.013C183.097 17.173 183.332 17.398 183.532 17.688C183.732 17.978 183.832 18.338 183.832 18.768C183.832 19.388 183.627 19.883 183.217 20.253C182.807 20.623 182.252 20.808 181.552 20.808ZM191.212 17.193C191.212 17.293 191.162 17.343 191.062 17.343H187.642C187.602 17.343 187.582 17.363 187.582 17.403V18.498C187.582 18.918 187.697 19.263 187.927 19.533C188.167 19.793 188.477 19.923 188.857 19.923C189.177 19.923 189.447 19.828 189.667 19.638C189.897 19.438 190.047 19.183 190.117 18.873C190.147 18.783 190.202 18.738 190.282 18.738L191.032 18.768C191.072 18.768 191.107 18.783 191.137 18.813C191.167 18.843 191.177 18.883 191.167 18.933C191.087 19.523 190.842 19.993 190.432 20.343C190.032 20.683 189.507 20.853 188.857 20.853C188.147 20.853 187.577 20.643 187.147 20.223C186.727 19.803 186.517 19.248 186.517 18.558V15.318C186.517 14.638 186.727 14.088 187.147 13.668C187.577 13.238 188.147 13.023 188.857 13.023C189.577 13.023 190.147 13.238 190.567 13.668C190.997 14.088 191.212 14.638 191.212 15.318V17.193ZM188.857 13.953C188.477 13.953 188.167 14.088 187.927 14.358C187.697 14.618 187.582 14.963 187.582 15.393V16.398C187.582 16.438 187.602 16.458 187.642 16.458H190.102C190.142 16.458 190.162 16.438 190.162 16.398V15.393C190.162 14.963 190.042 14.618 189.802 14.358C189.562 14.088 189.247 13.953 188.857 13.953ZM196.241 20.808C195.551 20.808 194.996 20.633 194.576 20.283C194.166 19.923 193.961 19.448 193.961 18.858V18.753C193.961 18.653 194.011 18.603 194.111 18.603H194.831C194.931 18.603 194.981 18.653 194.981 18.753V18.843C194.981 19.163 195.096 19.433 195.326 19.653C195.566 19.873 195.876 19.983 196.256 19.983C196.616 19.983 196.906 19.873 197.126 19.653C197.346 19.433 197.456 19.153 197.456 18.813C197.456 18.553 197.386 18.338 197.246 18.168C197.106 17.988 196.941 17.848 196.751 17.748C196.571 17.648 196.296 17.518 195.926 17.358C195.536 17.198 195.211 17.043 194.951 16.893C194.701 16.733 194.481 16.513 194.291 16.233C194.111 15.943 194.021 15.578 194.021 15.138C194.021 14.498 194.216 13.993 194.606 13.623C195.006 13.253 195.541 13.068 196.211 13.068C196.891 13.068 197.431 13.258 197.831 13.638C198.231 14.018 198.431 14.523 198.431 15.153V15.198C198.431 15.298 198.381 15.348 198.281 15.348H197.591C197.491 15.348 197.441 15.298 197.441 15.198V15.108C197.441 14.768 197.326 14.488 197.096 14.268C196.876 14.048 196.586 13.938 196.226 13.938C195.866 13.938 195.576 14.053 195.356 14.283C195.146 14.503 195.041 14.778 195.041 15.108C195.041 15.348 195.106 15.553 195.236 15.723C195.366 15.883 195.526 16.018 195.716 16.128C195.906 16.228 196.171 16.353 196.511 16.503C196.921 16.683 197.256 16.853 197.516 17.013C197.786 17.173 198.021 17.398 198.221 17.688C198.421 17.978 198.521 18.338 198.521 18.768C198.521 19.388 198.316 19.883 197.906 20.253C197.496 20.623 196.941 20.808 196.241 20.808ZM206.189 20.733C206.089 20.733 206.039 20.683 206.039 20.583V10.383C206.039 10.283 206.089 10.233 206.189 10.233H206.954C207.054 10.233 207.104 10.283 207.104 10.383V20.583C207.104 20.683 207.054 20.733 206.954 20.733H206.189ZM213.297 13.038C213.907 13.038 214.377 13.248 214.707 13.668C215.047 14.088 215.217 14.673 215.217 15.423V20.583C215.217 20.683 215.167 20.733 215.067 20.733H214.302C214.202 20.733 214.152 20.683 214.152 20.583V15.513C214.152 15.023 214.042 14.643 213.822 14.373C213.612 14.103 213.317 13.968 212.937 13.968C212.537 13.968 212.222 14.113 211.992 14.403C211.772 14.693 211.662 15.088 211.662 15.588V20.583C211.662 20.683 211.612 20.733 211.512 20.733H210.747C210.647 20.733 210.597 20.683 210.597 20.583V13.293C210.597 13.193 210.647 13.143 210.747 13.143H211.512C211.612 13.143 211.662 13.193 211.662 13.293V13.773C211.662 13.793 211.672 13.808 211.692 13.818C211.712 13.828 211.727 13.818 211.737 13.788C211.917 13.538 212.142 13.353 212.412 13.233C212.692 13.103 212.987 13.038 213.297 13.038ZM223.272 20.733C223.172 20.733 223.122 20.683 223.122 20.583V10.383C223.122 10.283 223.172 10.233 223.272 10.233H224.037C224.137 10.233 224.187 10.283 224.187 10.383V20.583C224.187 20.683 224.137 20.733 224.037 20.733H223.272ZM229.66 20.808C228.97 20.808 228.415 20.633 227.995 20.283C227.585 19.923 227.38 19.448 227.38 18.858V18.753C227.38 18.653 227.43 18.603 227.53 18.603H228.25C228.35 18.603 228.4 18.653 228.4 18.753V18.843C228.4 19.163 228.515 19.433 228.745 19.653C228.985 19.873 229.295 19.983 229.675 19.983C230.035 19.983 230.325 19.873 230.545 19.653C230.765 19.433 230.875 19.153 230.875 18.813C230.875 18.553 230.805 18.338 230.665 18.168C230.525 17.988 230.36 17.848 230.17 17.748C229.99 17.648 229.715 17.518 229.345 17.358C228.955 17.198 228.63 17.043 228.37 16.893C228.12 16.733 227.9 16.513 227.71 16.233C227.53 15.943 227.44 15.578 227.44 15.138C227.44 14.498 227.635 13.993 228.025 13.623C228.425 13.253 228.96 13.068 229.63 13.068C230.31 13.068 230.85 13.258 231.25 13.638C231.65 14.018 231.85 14.523 231.85 15.153V15.198C231.85 15.298 231.8 15.348 231.7 15.348H231.01C230.91 15.348 230.86 15.298 230.86 15.198V15.108C230.86 14.768 230.745 14.488 230.515 14.268C230.295 14.048 230.005 13.938 229.645 13.938C229.285 13.938 228.995 14.053 228.775 14.283C228.565 14.503 228.46 14.778 228.46 15.108C228.46 15.348 228.525 15.553 228.655 15.723C228.785 15.883 228.945 16.018 229.135 16.128C229.325 16.228 229.59 16.353 229.93 16.503C230.34 16.683 230.675 16.853 230.935 17.013C231.205 17.173 231.44 17.398 231.64 17.688C231.84 17.978 231.94 18.338 231.94 18.768C231.94 19.388 231.735 19.883 231.325 20.253C230.915 20.623 230.36 20.808 229.66 20.808ZM237.355 13.068C237.605 13.068 237.82 13.123 238 13.233C238.07 13.273 238.095 13.338 238.075 13.428L237.895 14.208C237.885 14.298 237.825 14.328 237.715 14.298C237.595 14.238 237.445 14.208 237.265 14.208C237.185 14.208 237.125 14.213 237.085 14.223C236.725 14.243 236.43 14.433 236.2 14.793C235.97 15.143 235.855 15.573 235.855 16.083V20.583C235.855 20.683 235.805 20.733 235.705 20.733H234.94C234.84 20.733 234.79 20.683 234.79 20.583V13.293C234.79 13.193 234.84 13.143 234.94 13.143H235.705C235.805 13.143 235.855 13.193 235.855 13.293V14.193C235.855 14.223 235.86 14.238 235.87 14.238C235.89 14.238 235.91 14.228 235.93 14.208C236.22 13.448 236.695 13.068 237.355 13.068ZM242.861 13.023C243.561 13.023 244.121 13.253 244.541 13.713C244.961 14.163 245.171 14.768 245.171 15.528V20.583C245.171 20.683 245.121 20.733 245.021 20.733H244.256C244.156 20.733 244.106 20.683 244.106 20.583V20.133C244.106 20.113 244.096 20.103 244.076 20.103C244.066 20.093 244.051 20.098 244.031 20.118C243.661 20.608 243.106 20.853 242.366 20.853C241.816 20.853 241.336 20.698 240.926 20.388C240.526 20.068 240.326 19.508 240.326 18.708C240.326 17.858 240.571 17.238 241.061 16.848C241.551 16.448 242.196 16.248 242.996 16.248H244.046C244.086 16.248 244.106 16.228 244.106 16.188V15.603C244.106 15.103 243.991 14.703 243.761 14.403C243.531 14.103 243.221 13.953 242.831 13.953C242.531 13.953 242.271 14.053 242.051 14.253C241.841 14.453 241.716 14.708 241.676 15.018C241.676 15.118 241.626 15.168 241.526 15.168L240.686 15.153C240.636 15.153 240.596 15.138 240.566 15.108C240.546 15.078 240.541 15.043 240.551 15.003C240.601 14.413 240.841 13.938 241.271 13.578C241.701 13.208 242.231 13.023 242.861 13.023ZM242.591 19.923C243.001 19.923 243.356 19.793 243.656 19.533C243.956 19.263 244.106 18.893 244.106 18.423V17.163C244.106 17.123 244.086 17.103 244.046 17.103H242.981C242.501 17.103 242.121 17.233 241.841 17.493C241.561 17.743 241.421 18.118 241.421 18.618C241.421 19.058 241.526 19.388 241.736 19.608C241.956 19.818 242.241 19.923 242.591 19.923ZM252.867 17.193C252.867 17.293 252.817 17.343 252.717 17.343H249.297C249.257 17.343 249.237 17.363 249.237 17.403V18.498C249.237 18.918 249.352 19.263 249.582 19.533C249.822 19.793 250.132 19.923 250.512 19.923C250.832 19.923 251.102 19.828 251.322 19.638C251.552 19.438 251.702 19.183 251.772 18.873C251.802 18.783 251.857 18.738 251.937 18.738L252.687 18.768C252.727 18.768 252.762 18.783 252.792 18.813C252.822 18.843 252.832 18.883 252.822 18.933C252.742 19.523 252.497 19.993 252.087 20.343C251.687 20.683 251.162 20.853 250.512 20.853C249.802 20.853 249.232 20.643 248.802 20.223C248.382 19.803 248.172 19.248 248.172 18.558V15.318C248.172 14.638 248.382 14.088 248.802 13.668C249.232 13.238 249.802 13.023 250.512 13.023C251.232 13.023 251.802 13.238 252.222 13.668C252.652 14.088 252.867 14.638 252.867 15.318V17.193ZM250.512 13.953C250.132 13.953 249.822 14.088 249.582 14.358C249.352 14.618 249.237 14.963 249.237 15.393V16.398C249.237 16.438 249.257 16.458 249.297 16.458H251.757C251.797 16.458 251.817 16.438 251.817 16.398V15.393C251.817 14.963 251.697 14.618 251.457 14.358C251.217 14.088 250.902 13.953 250.512 13.953ZM256.006 20.733C255.906 20.733 255.856 20.683 255.856 20.583V10.383C255.856 10.283 255.906 10.233 256.006 10.233H256.771C256.871 10.233 256.921 10.283 256.921 10.383V20.583C256.921 20.683 256.871 20.733 256.771 20.733H256.006ZM260.846 17.313C260.746 17.313 260.696 17.263 260.696 17.163L260.606 10.383C260.606 10.283 260.656 10.233 260.756 10.233H261.521C261.621 10.233 261.671 10.283 261.671 10.383L261.566 17.163C261.566 17.263 261.516 17.313 261.416 17.313H260.846ZM261.131 20.673C260.881 20.673 260.676 20.598 260.516 20.448C260.366 20.288 260.291 20.088 260.291 19.848C260.291 19.598 260.366 19.398 260.516 19.248C260.676 19.088 260.881 19.008 261.131 19.008C261.371 19.008 261.571 19.088 261.731 19.248C261.891 19.398 261.971 19.598 261.971 19.848C261.971 20.088 261.891 20.288 261.731 20.448C261.571 20.598 261.371 20.673 261.131 20.673Z" fill="white" fill-opacity="0.4"/>
</g>
</svg>
